<svg width="375" height="812" viewBox="0 0 375 812" fill="none" xmlns="http://www.w3.org/2000/svg">
<g opacity="0.75" clip-path="url(#clip0_11_98)">
<path d="M-4.04071 757.772L11.4487 748.732L26.9385 739.691L11.4487 730.656L-4.04071 721.615L-4.04071 739.691L-4.04071 757.772Z" fill="#FFC7C7" fill-opacity="0.6"/>
<path d="M148.98 721.615L133.49 712.58L118 703.539L118 739.691L133.49 730.656L148.98 721.615Z" fill="#FFC7C7" fill-opacity="0.6"/>
<path d="M251 744.152L266.489 735.112L281.979 726.076L266.489 717.036L251 708L251 726.076L251 744.152Z" fill="#C21717" fill-opacity="0.6"/>
<path d="M179.98 694.076L164.49 685.036L149 676L149 712.152L164.49 703.116L179.98 694.076Z" fill="#C21717" fill-opacity="0.6"/>
<path d="M-4.04071 685.463L11.4487 676.423L26.9385 667.387L11.4487 658.347L-4.04071 649.311L-4.04071 667.387L-4.04071 685.463Z" fill="#881010" fill-opacity="0.7"/>
<path d="M57.9186 649.311L57.9186 685.463L73.4079 676.423L88.8978 667.387L73.4079 658.347L57.9186 649.311Z" fill="#C21717" fill-opacity="0.6"/>
<path d="M133.959 793.924L118.469 784.884L102.979 775.848L102.979 812L118.469 802.96L133.959 793.924Z" fill="#FFC7C7" fill-opacity="0.6"/>
<path d="M34 762.233L49.4898 753.192L64.9801 744.157L49.4898 735.116L34 726.076L34 744.157L34 762.233Z" fill="#C21717" fill-opacity="0.6"/>
<path d="M171.98 775.848L156.49 766.808L141 757.772L141 793.924L156.49 784.884L171.98 775.848Z" fill="#FF8F8F" fill-opacity="0.6"/>
<path d="M235.98 757.772L220.49 748.732L205 739.691L205 775.848L220.49 766.808L235.98 757.772Z" fill="#C21717" fill-opacity="0.6"/>
<path d="M-4.04071 757.772L-4.04071 793.924L11.4487 784.884L26.9385 775.848L11.4487 766.808L-4.04071 757.772Z" fill="#881010" fill-opacity="0.7"/>
<path d="M26.9385 775.848L11.4487 784.884L-4.04071 793.924L11.4487 802.96L26.9385 812L26.9385 793.924L26.9385 775.848Z" fill="#FFC7C7" fill-opacity="0.6"/>
<path d="M-4.04071 757.772L11.4487 766.808L26.9385 775.848L26.9385 739.691L11.4487 748.732L-4.04071 757.772Z" fill="#C21717" fill-opacity="0.6"/>
<path d="M26.9385 739.691L26.9385 703.539L11.4487 712.58L-4.04071 721.615L11.4487 730.656L26.9385 739.691Z" fill="#D5D5D5"/>
<path d="M281.979 798.38L281.979 762.228L266.489 771.268L251 780.304L266.489 789.344L281.979 798.38Z" fill="#FF8F8F" fill-opacity="0.6"/>
<path d="M350.979 780.152L350.979 744L335.489 753.04L320 762.076L335.489 771.116L350.979 780.152Z" fill="#FF8F8F" fill-opacity="0.6"/>
<path d="M26.9385 775.848L42.4283 784.884L57.9186 793.924L57.9186 757.772L42.4283 766.808L26.9385 775.848Z" fill="#FFC7C7" fill-opacity="0.6"/>
<path d="M64.9801 744.157L64.9801 708L49.4898 717.04L34 726.076L49.4898 735.116L64.9801 744.157Z" fill="#FFC7C7" fill-opacity="0.6"/>
<path d="M57.9186 613.155L42.4283 622.195L26.9385 631.235L42.4283 640.271L57.9186 649.311L57.9186 631.235L57.9186 613.155Z" fill="#FF8F8F" fill-opacity="0.6"/>
<path d="M102.979 775.848L102.979 739.691L87.4894 748.732L72 757.772L87.4894 766.808L102.979 775.848Z" fill="#C21717" fill-opacity="0.6"/>
<path d="M197.979 631.235L182.489 640.271L167 649.311L182.489 658.347L197.979 667.387L197.979 649.311L197.979 631.235Z" fill="#FF8F8F" fill-opacity="0.6"/>
<path d="M189.98 775.848L174.49 784.884L159 793.924L174.49 802.96L189.98 812L189.98 793.924L189.98 775.848Z" fill="#881010" fill-opacity="0.7"/>
<path d="M42.4283 802.96L26.9385 812L57.9186 812L57.9186 793.924L42.4283 802.96Z" fill="#C21717" fill-opacity="0.6"/>
<path d="M378.04 108.46L362.551 99.4217L347.061 90.3833L347.061 126.537L362.551 117.498L378.04 108.46Z" fill="#FFC7C7" fill-opacity="0.6"/>
<path d="M254.122 36.1532L254.122 72.3063L269.612 63.2683L285.102 54.2299L269.612 45.1918L254.122 36.1532Z" fill="#881010" fill-opacity="0.7"/>
<path d="M316.081 72.3063L300.592 63.2683L285.102 54.2299L285.102 90.3833L300.592 81.3448L316.081 72.3063Z" fill="#D5D5D5"/>
<path d="M378.04 72.3063L362.551 63.2683L347.061 54.2299L347.061 90.3833L362.551 81.3448L378.04 72.3063Z" fill="#C21717" fill-opacity="0.6"/>
<path d="M120 90.3832L120 126.537L135.49 117.498L150.979 108.46L135.49 99.4217L120 90.3832Z" fill="#FFC7C7" fill-opacity="0.6"/>
<path d="M212.979 72.0765L197.489 63.0384L182 54L182 90.1532L197.489 81.1152L212.979 72.0765Z" fill="#D5D5D5"/>
<path d="M347.061 54.2299L362.551 45.1919L378.04 36.1532L362.551 27.1151L347.061 18.0767L347.061 36.1532L347.061 54.2299Z" fill="#881010" fill-opacity="0.7"/>
<path d="M316.081 18.0767L316.081 36.1532L331.571 27.1151L347.061 18.0767L331.571 9.0381L316.081 0L316.081 17.4753L316.081 18.0767Z" fill="#C21717" fill-opacity="0.6"/>
<path d="M130.204 36.1532L145.693 45.1919L161.184 54.2299L161.184 18.0767L145.693 27.1151L130.204 36.1532Z" fill="#C21717" fill-opacity="0.6"/>
<path d="M192.163 1.35414e-06L176.673 9.0381L161.184 18.0767L176.673 27.1151L192.163 36.1532L192.163 18.0767L192.163 1.35414e-06Z" fill="#FFC7C7" fill-opacity="0.6"/>
<path d="M181.959 162.69L197.449 171.729L212.938 180.767L212.938 144.613L197.449 153.652L181.959 162.69Z" fill="#C21717" fill-opacity="0.6"/>
<path d="M232.979 72.0765L217.489 81.1151L202 90.1532L217.489 99.1916L232.979 108.23L232.979 90.1532L232.979 72.0765Z" fill="#FFC7C7" fill-opacity="0.6"/>
<path d="M223.143 18.0767L238.632 27.1151L254.122 36.1532L254.122 1.35414e-06L238.632 9.0381L223.143 18.0767Z" fill="#C21717" fill-opacity="0.6"/>
<path d="M285.102 90.3832L269.612 99.4217L254.122 108.46L269.612 117.498L285.102 126.537L285.102 108.46L285.102 90.3832Z" fill="#D5D5D5"/>
<path d="M285.102 18.0767L269.612 27.1151L254.122 36.1532L269.612 45.1919L285.102 54.2299L285.102 36.1532L285.102 18.0767Z" fill="#FF8F8F" fill-opacity="0.6"/>
<path d="M269.612 9.0381L285.102 18.0767L285.102 1.35416e-06L254.122 0L269.612 9.0381Z" fill="#881010" fill-opacity="0.7"/>
<path d="M284.98 180.767L269.49 189.805L254 198.843L269.49 207.881L284.98 216.92L284.98 198.843L284.98 180.767Z" fill="#FF8F8F" fill-opacity="0.6"/>
<path d="M316.081 108.46L316.081 72.3063L300.592 81.3448L285.102 90.3833L300.592 99.4217L316.081 108.46Z" fill="#C21717" fill-opacity="0.6"/>
<path d="M285.102 17.4753L285.617 17.7757L300.592 26.5133L316.081 35.552L316.081 18.0767L316.081 17.4753L316.081 1.35416e-06L315.051 1.30912e-06L300.592 8.43668L285.102 17.4753Z" fill="#881010" fill-opacity="0.7"/>
<path d="M315.959 229L300.47 238.038L284.98 247.077L300.47 256.115L315.959 265.153L315.959 247.077L315.959 229Z" fill="#FF8F8F" fill-opacity="0.6"/>
<path d="M347.061 162.69L331.571 171.729L316.081 180.767L331.571 189.805L347.061 198.843L347.061 180.767L347.061 162.69Z" fill="#D5D5D5"/>
<path d="M316.081 144.613L331.571 153.652L347.061 162.69L347.061 126.537L331.571 135.575L316.081 144.613Z" fill="#FFC7C7" fill-opacity="0.6"/>
<path d="M347.061 90.3833L331.571 99.4217L316.081 108.46L331.571 117.498L347.061 126.537L347.061 108.46L347.061 90.3833Z" fill="#D5D5D5"/>
<path d="M347.061 54.2299L347.061 18.0767L331.571 27.1151L316.081 36.1532L331.571 45.1919L347.061 54.2299Z" fill="#D5D5D5"/>
<path d="M347.061 18.0767L347.061 1.35416e-06L316.081 0L331.571 9.0381L347.061 18.0767Z" fill="#D5D5D5"/>
<path d="M378.04 180.767L362.551 189.805L347.061 198.843L362.551 207.881L378.04 216.92L378.04 198.843L378.04 180.767Z" fill="#FFC7C7" fill-opacity="0.6"/>
<path d="M378.04 108.46L362.551 117.498L347.061 126.537L362.551 135.575L378.04 144.613L378.04 126.537L378.04 108.46Z" fill="#881010" fill-opacity="0.7"/>
<path d="M378.04 108.46L378.04 72.3063L362.551 81.3448L347.061 90.3833L362.551 99.4217L378.04 108.46Z" fill="#881010" fill-opacity="0.7"/>
<path d="M347.061 18.0767L362.551 27.1151L378.04 36.1532L378.04 1.35415e-06L362.551 9.0381L347.061 18.0767Z" fill="#FFC7C7" fill-opacity="0.6"/>
</g>
<defs>
<clipPath id="clip0_11_98">
<rect width="812" height="506" fill="white" transform="translate(440) rotate(90)"/>
</clipPath>
</defs>
</svg>
