<svg xmlns="http://www.w3.org/2000/svg" width="28" height="28" viewBox="0 0 28 28" fill="none">
  <path d="M7.14582 3.79167C6.58203 3.79167 6.12499 4.24871 6.12499 4.8125V24.2083H8.16666V21.1458C8.16666 20.421 8.75428 19.8333 9.47916 19.8333H18.5208C19.2457 19.8333 19.8333 20.421 19.8333 21.1458V24.2083H21.875V13.5625C21.875 12.9987 21.4179 12.5417 20.8542 12.5417H17.9375C17.5348 12.5417 17.2083 12.2152 17.2083 11.8125V4.8125C17.2083 4.24871 16.7513 3.79167 16.1875 3.79167H7.14582ZM5.39582 25.6667C4.99312 25.6667 4.66666 25.3402 4.66666 24.9375V4.8125C4.66666 3.4433 5.77662 2.33334 7.14582 2.33334H16.1875C17.5567 2.33334 18.6667 3.4433 18.6667 4.8125V11.0833H20.8542C22.2234 11.0833 23.3333 12.1933 23.3333 13.5625V24.9375C23.3333 25.3402 23.0069 25.6667 22.6042 25.6667H5.39582ZM9.62499 24.2083H13.2708V21.2917H9.62499V24.2083ZM14.7292 24.2083H18.375V21.2917H14.7292V24.2083ZM10.5 8.16667C10.5 8.811 9.97766 9.33333 9.33332 9.33333C8.68899 9.33333 8.16666 8.811 8.16666 8.16667C8.16666 7.52234 8.68899 7 9.33332 7C9.97766 7 10.5 7.52234 10.5 8.16667ZM9.33332 13.4167C9.97766 13.4167 10.5 12.8943 10.5 12.25C10.5 11.6057 9.97766 11.0833 9.33332 11.0833C8.68899 11.0833 8.16666 11.6057 8.16666 12.25C8.16666 12.8943 8.68899 13.4167 9.33332 13.4167ZM10.5 16.3333C10.5 16.9777 9.97766 17.5 9.33332 17.5C8.68899 17.5 8.16666 16.9777 8.16666 16.3333C8.16666 15.689 8.68899 15.1667 9.33332 15.1667C9.97766 15.1667 10.5 15.689 10.5 16.3333ZM14 9.33333C14.6443 9.33333 15.1667 8.811 15.1667 8.16667C15.1667 7.52234 14.6443 7 14 7C13.3557 7 12.8333 7.52234 12.8333 8.16667C12.8333 8.811 13.3557 9.33333 14 9.33333ZM15.1667 12.25C15.1667 12.8943 14.6443 13.4167 14 13.4167C13.3557 13.4167 12.8333 12.8943 12.8333 12.25C12.8333 11.6057 13.3557 11.0833 14 11.0833C14.6443 11.0833 15.1667 11.6057 15.1667 12.25ZM14 17.5C14.6443 17.5 15.1667 16.9777 15.1667 16.3333C15.1667 15.689 14.6443 15.1667 14 15.1667C13.3557 15.1667 12.8333 15.689 12.8333 16.3333C12.8333 16.9777 13.3557 17.5 14 17.5ZM19.8333 16.3333C19.8333 16.9777 19.311 17.5 18.6667 17.5C18.0223 17.5 17.5 16.9777 17.5 16.3333C17.5 15.689 18.0223 15.1667 18.6667 15.1667C19.311 15.1667 19.8333 15.689 19.8333 16.3333Z" fill="black" fill-opacity="0.6"/>
</svg>