<svg xmlns="http://www.w3.org/2000/svg" width="28" height="28" viewBox="0 0 28 28" fill="none">
  <path d="M10.2294 2.55743C11.4317 2.3926 12.4419 3.12803 12.92 4.08407L14.0967 6.43712C14.7495 7.74262 14.3748 9.27408 13.3846 10.2381C12.8007 10.8067 12.2134 11.4565 11.8724 12.0297C11.8538 12.061 11.8425 12.1074 11.8529 12.1641C12.1676 13.8708 13.3247 15.5576 14.3566 16.7667C14.4488 16.8749 14.611 16.9279 14.7787 16.8755L17.0976 16.1509C18.3798 15.7502 19.7735 16.2319 20.5346 17.3389L22.2129 19.7798C22.6681 20.4419 22.898 21.3406 22.5493 22.2044C22.2378 22.9759 21.635 24.0894 20.539 24.8293C19.4017 25.5972 17.8435 25.8888 15.8051 25.1897C13.5272 24.4085 11.3749 22.4484 9.59049 19.9414C7.79541 17.4193 6.31801 14.2685 5.42186 10.9833C4.57559 7.881 5.08707 5.79363 6.28951 4.44854C7.44965 3.15078 9.11226 2.71058 10.2294 2.55743ZM11.6156 4.73633C11.3495 4.20414 10.8737 3.94107 10.4275 4.00224C9.43525 4.13827 8.19265 4.50778 7.37675 5.42048C6.60315 6.28585 6.06776 7.8097 6.82879 10.5996C7.683 13.731 9.08999 16.7233 10.7786 19.0957C12.4779 21.4832 14.4086 23.1691 16.2782 23.8103C17.9433 24.3813 19.014 24.0993 19.723 23.6206C20.4735 23.114 20.9347 22.3081 21.197 21.6584C21.3173 21.3606 21.2656 20.9761 21.0112 20.606L19.3329 18.1651C18.9342 17.5853 18.2042 17.3329 17.5326 17.5428L15.2137 18.2675C14.5209 18.484 13.7402 18.291 13.2473 17.7134C12.1734 16.4551 10.8054 14.5253 10.4188 12.4285C10.3482 12.0456 10.4091 11.6371 10.619 11.2842C11.0609 10.5413 11.7611 9.78349 12.3673 9.19324C12.9594 8.61672 13.1272 7.75904 12.7923 7.08937L11.6156 4.73633Z" fill="black" fill-opacity="0.6"/>
</svg>