<svg xmlns="http://www.w3.org/2000/svg" width="41" height="40" fill="none" viewBox="0 0 41 40">
  <path fill-opacity="1" fill="black" d="M28.047 6C30.23 6 32 7.726 32 9.852V30.15c0 2.126-1.77 3.85-3.953 3.85H12.953C10.77 34 9 32.276 9 30.15V9.85c0-1.763 1.216-3.249 2.876-3.706l-.002 2.306c-.436.32-.718.828-.718 1.4v20.3c0 .966.805 1.75 1.797 1.75h15.094c.992 0 1.797-.784 1.797-1.75V9.85c0-.967-.805-1.75-1.797-1.75h-3.235V6h3.235Zm-4.672 0v11.395c0 1.046-1.15 1.439-1.853 1.07l-.12-.073-3.056-1.8-2.987 1.753c-.718.505-1.912.195-2.036-.781l-.01-.169V6h10.062ZM21.22 8.1h-5.75v7.733l2.261-1.329c.38-.193.84-.197 1.175-.033l2.314 1.363V8.1Z"/>
</svg>
