<svg xmlns="http://www.w3.org/2000/svg" width="28" height="28" viewBox="0 0 28 28" fill="none">
  <path d="M11.7683 3.49573C13.1364 2.6516 14.8636 2.6516 16.2317 3.49573L26.1438 9.61172C26.3622 9.74648 26.4966 9.98354 26.4999 10.2401C26.5033 10.4967 26.3753 10.7373 26.1605 10.8777L22 13.5983V20.25C22 20.5459 21.8377 20.7293 21.6471 20.9154C21.5525 21.0079 21.4155 21.1361 21.2381 21.2882C20.8837 21.5919 20.3654 21.9929 19.6984 22.3931C18.3656 23.1928 16.4206 24 14 24C11.5794 24 9.63442 23.1928 8.30163 22.3931C7.63464 21.9929 7.11629 21.5919 6.76191 21.2882C6.5845 21.1361 6.44752 21.0079 6.3529 20.9154C6.16179 20.7288 6 20.5488 6 20.25V13.5983L3 11.6366V17.75C3 18.1642 2.66421 18.5 2.25 18.5C1.83579 18.5 1.5 18.1642 1.5 17.75V10.5C1.5 10.4573 1.50357 10.4154 1.51042 10.3747C1.503 10.3307 1.49947 10.2857 1.50007 10.2401C1.50344 9.98354 1.63777 9.74648 1.85617 9.61172L11.7683 3.49573ZM7.5 14.5792V19.9368C7.56429 19.9967 7.64382 20.0685 7.73809 20.1493C8.03997 20.4081 8.49036 20.7571 9.07337 21.1069C10.2406 21.8072 11.9206 22.5 14 22.5C16.0794 22.5 17.7594 21.8072 18.9266 21.1069C19.5096 20.7571 19.96 20.4081 20.2619 20.1493C20.3562 20.0685 20.4357 19.9967 20.5 19.9368V14.5792L16.326 17.3087C14.913 18.2327 13.087 18.2327 11.674 17.3087L7.5 14.5792ZM15.444 4.77229C14.5588 4.22608 13.4412 4.22608 12.556 4.77229L3.64849 10.2684L12.4949 16.0533C13.4092 16.6512 14.5908 16.6512 15.5051 16.0533L24.3515 10.2684L15.444 4.77229Z" fill="black" fill-opacity="0.6"/>
</svg>