<svg xmlns="http://www.w3.org/2000/svg" width="28" height="28" viewBox="0 0 28 28" fill="none">
  <path d="M12.6037 3.41552C13.4195 2.75038 14.5805 2.75038 15.3964 3.41552L23.0818 9.68132C23.6096 10.1116 23.9167 10.7621 23.9167 11.4496V22.8162C23.9167 24.0683 22.9177 25.0833 21.6854 25.0833H18.5646C17.3323 25.0833 16.3333 24.0683 16.3333 22.8162V17.4338C16.3333 17.0165 16.0004 16.6781 15.5896 16.6781H12.4104C11.9997 16.6781 11.6667 17.0165 11.6667 17.4338V22.8162C11.6667 24.0683 10.6677 25.0833 9.43543 25.0833H6.31459C5.08231 25.0833 4.08334 24.0683 4.08334 22.8162V11.4496C4.08334 10.7621 4.39044 10.1116 4.91823 9.68132L12.6037 3.41552ZM14.4655 4.5944C14.1935 4.37269 13.8065 4.37269 13.5346 4.5944L5.84914 10.8602C5.67321 11.0036 5.57084 11.2205 5.57084 11.4496V22.8162C5.57084 23.2335 5.90383 23.5719 6.31459 23.5719H9.43543C9.84619 23.5719 10.1792 23.2335 10.1792 22.8162V17.4338C10.1792 16.1817 11.1781 15.1667 12.4104 15.1667H15.5896C16.8219 15.1667 17.8208 16.1817 17.8208 17.4338V22.8162C17.8208 23.2335 18.1538 23.5719 18.5646 23.5719H21.6854C22.0962 23.5719 22.4292 23.2335 22.4292 22.8162V11.4496C22.4292 11.2205 22.3268 11.0036 22.1509 10.8602L14.4655 4.5944Z" fill="black" fill-opacity="0.6"/>
</svg>