<svg xmlns="http://www.w3.org/2000/svg" width="40" height="40" fill="none" viewBox="0 0 40 40">
  <path d="M15.5 16.5c0 1.45-1.209 2.625-2.7 2.625s-2.7-1.175-2.7-2.625 1.209-2.625 2.7-2.625 2.7 1.175 2.7 2.625Zm-7.2 5.688c0-.725.604-1.313 1.35-1.313h6.3c.746 0 1.35.588 1.35 1.313v.437s0 3.5-4.5 3.5-4.5-3.5-4.5-3.5v-.438Zm12.6-5.47c0-.603.504-1.093 1.125-1.093h8.55c.621 0 1.125.49 1.125 1.094 0 .604-.504 1.093-1.125 1.093h-8.55c-.621 0-1.125-.49-1.125-1.093Zm1.125 5.032c-.621 0-1.125.49-1.125 1.094 0 .604.504 1.093 1.125 1.093h8.55c.621 0 1.125-.49 1.125-1.093 0-.604-.504-1.094-1.125-1.094h-8.55ZM2 9.719C2 7.665 3.713 6 5.825 6h28.35C36.288 6 38 7.665 38 9.719V30.28c0 2.055-1.712 3.72-3.825 3.72H5.825C3.713 34 2 32.335 2 30.281V9.72Zm3.825-1.531c-.87 0-1.575.685-1.575 1.53v20.563c0 .846.705 1.532 1.575 1.532h28.35c.87 0 1.575-.686 1.575-1.532V9.72c0-.846-.705-1.531-1.575-1.531H5.825Z" fill="black" fill-opacity="1"/>
</svg>
