<svg xmlns="http://www.w3.org/2000/svg" width="80" height="80" viewBox="0 0 80 80" fill="none">
  <path d="M39.46 0.0497437C39.416 0.0777435 39.232 0.153748 39.052 0.217743C38.356 0.477737 37.868 1.00973 37.596 1.79771C37.504 2.0617 37.496 2.50969 37.58 3.04168C37.672 3.64967 37.72 3.58967 37.132 3.60966C36.848 3.62167 36.612 3.62567 36.604 3.61767C36.596 3.60966 36.612 3.38967 36.64 3.12568C36.688 2.68969 36.684 2.61369 36.624 2.3857C36.464 1.8017 35.88 1.05772 35.368 0.789726C34.816 0.497734 34.06 0.397736 33.52 0.541733C32.948 0.693733 32.32 1.15372 31.992 1.66171C31.732 2.0617 31.672 2.33769 31.688 3.04968L31.7 3.66167L31.88 4.00966C31.976 4.20165 32.048 4.36565 32.04 4.37766C32.028 4.38565 31.776 4.44565 31.48 4.51365L30.94 4.62965L30.908 4.32565C30.836 3.57767 30.704 3.20168 30.364 2.77769C30.056 2.38969 29.504 2.0337 28.992 1.89771C28.716 1.82571 28.12 1.82571 27.84 1.9017C27.34 2.0337 26.716 2.44569 26.416 2.84969C26.008 3.38567 25.92 3.65366 25.92 4.36165C25.92 4.98964 25.976 5.18163 26.296 5.66563L26.516 5.99361L26.036 6.21761C25.772 6.34161 25.548 6.4416 25.54 6.4416C25.528 6.4416 25.52 6.39361 25.52 6.32961C25.52 6.13361 25.296 5.57763 25.108 5.28963C24.84 4.88964 24.472 4.56165 24.056 4.35365L23.708 4.18166L23.16 4.16965C22.752 4.15765 22.544 4.16965 22.356 4.21765C21.544 4.42165 20.88 5.01764 20.644 5.75362C20.56 6.00562 20.556 6.09761 20.568 6.7096L20.58 7.38559L20.728 7.68558C20.808 7.84958 20.96 8.08157 21.06 8.20157C21.164 8.32156 21.28 8.46956 21.324 8.52956L21.4 8.63356L20.928 8.90955L20.456 9.18954L20.388 8.92955C20.292 8.56956 20.088 8.25357 19.732 7.92158C19.392 7.60558 18.88 7.32558 18.472 7.23759C18.156 7.16959 17.524 7.20959 17.22 7.31759C16.572 7.54958 16 8.04557 15.712 8.62956L15.54 8.97355L15.528 9.50954C15.512 10.1255 15.576 10.4975 15.76 10.8695C15.9 11.1455 16.204 11.4975 16.484 11.7055L16.688 11.8535L16.316 12.2255C16.108 12.4335 15.932 12.6015 15.92 12.6015C15.908 12.6015 15.768 12.4215 15.608 12.2015C15.228 11.6895 14.98 11.4455 14.668 11.2935C14.284 11.1015 13.992 11.0415 13.448 11.0415C12.52 11.0415 12.156 11.2575 11.392 12.2495L11.092 12.6375L11.04 13.0575C10.976 13.5894 11.028 14.1614 11.172 14.4814C11.38 14.9454 11.784 15.3654 12.348 15.7014L12.6 15.8494L12.272 16.2374C12.096 16.4494 11.936 16.6374 11.92 16.6534C11.904 16.6694 11.704 16.4974 11.476 16.2734C11.172 15.9694 10.98 15.8174 10.76 15.7014L10.46 15.5414H9.716H8.972L8.624 15.7134C8.044 16.0014 7.58 16.5294 7.328 17.1934C7.232 17.4334 7.224 17.5174 7.224 18.0014C7.224 18.4973 7.232 18.5653 7.332 18.8213C7.64 19.5933 8.304 20.2293 8.964 20.3773L9.156 20.4213L8.892 20.8933C8.744 21.1493 8.612 21.3613 8.596 21.3613C8.576 21.3613 8.46 21.2733 8.332 21.1693C7.676 20.6253 7.496 20.5613 6.672 20.5613C6.336 20.5613 5.98 20.5813 5.88 20.6053C5.116 20.7813 4.432 21.5013 4.216 22.3613C4.12 22.7373 4.152 23.5732 4.276 23.8852C4.596 24.7132 5.392 25.3532 6.188 25.4292C6.424 25.4492 6.44 25.4572 6.416 25.5372C6.312 25.8692 6.068 26.5212 6.044 26.5212C6.028 26.5212 5.908 26.4572 5.776 26.3732C5.132 25.9772 5.224 26.0012 4.432 26.0012C3.804 26.0012 3.696 26.0092 3.492 26.0852C2.872 26.3172 2.312 26.8612 1.988 27.5531C1.876 27.7891 1.86 27.8691 1.848 28.2451C1.836 28.5891 1.848 28.7291 1.92 28.9851C2.112 29.6971 2.392 30.0731 3.084 30.5611L3.472 30.8331L4.036 30.8851C4.576 30.9331 4.604 30.9411 4.584 31.0211C4.572 31.0651 4.524 31.2931 4.476 31.5291C4.4 31.889 4.372 31.961 4.312 31.961C4.272 31.961 4.088 31.897 3.904 31.8211C3.568 31.6811 3.56 31.6811 2.972 31.6811C2.456 31.6811 2.344 31.6931 2.12 31.7731C1.384 32.037 0.816 32.669 0.56 33.517C0.484 33.765 0.472 33.873 0.488 34.253C0.504 34.621 0.528 34.749 0.62 34.981C0.876 35.625 1.36 36.157 1.956 36.4529L2.292 36.6209H2.972H3.648L3.624 36.7809C3.612 36.8689 3.588 37.0969 3.572 37.2889C3.544 37.6889 3.54 37.6929 3.176 37.5809C3.048 37.5409 2.808 37.5209 2.48 37.5209C1.912 37.5249 1.636 37.5929 1.224 37.8409C0.796 38.1009 0.56 38.3769 0.264 38.9769L0 39.5129V39.9369C0 40.2249 0.02 40.4009 0.056 40.4729C0.088 40.5329 0.168 40.7409 0.236 40.9329C0.476 41.6208 0.896 42.0408 1.648 42.3528C1.972 42.4888 2.428 42.5128 3.012 42.4248C3.648 42.3288 3.584 42.2888 3.616 42.8088C3.632 43.0568 3.652 43.2888 3.66 43.3208C3.676 43.3728 3.584 43.3808 2.988 43.3808H2.292L1.956 43.5488C1.36 43.8448 0.876 44.3768 0.62 45.0208C0.472 45.3888 0.436 46.0047 0.536 46.4007C0.76 47.2807 1.432 48.0327 2.196 48.2567C2.356 48.3047 2.584 48.3207 3.036 48.3207H3.66L3.936 48.1807C4.376 47.9607 4.364 47.9527 4.508 48.5487L4.628 49.0607L4.444 49.0887C4.344 49.1007 4.076 49.1167 3.852 49.1167C3.62 49.1207 3.44 49.1367 3.44 49.1607C3.44 49.1807 3.264 49.3207 3.048 49.4727C2.368 49.9567 2.112 50.3086 1.92 51.0166C1.848 51.2766 1.836 51.4126 1.848 51.7766C1.86 52.1726 1.876 52.2486 1.984 52.4806C2.34 53.2246 3.048 53.8166 3.832 54.0166C3.972 54.0566 4.24 54.0806 4.476 54.0806C4.956 54.0806 5.092 54.0366 5.636 53.7086C5.844 53.5846 6.024 53.4806 6.04 53.4806C6.056 53.4806 6.156 53.7086 6.268 53.9926L6.472 54.5006L6.128 54.5686C5.204 54.7526 4.444 55.4445 4.22 56.3005C4.14 56.6125 4.14 57.3485 4.22 57.6605C4.424 58.4605 5.048 59.1445 5.768 59.3645C6.008 59.4364 6.124 59.4484 6.712 59.4364L7.384 59.4205L7.684 59.2725C7.844 59.1885 8.124 59.0045 8.296 58.8645C8.472 58.7205 8.624 58.6125 8.636 58.6245C8.648 58.6325 8.776 58.8445 8.92 59.0925L9.188 59.5404L8.88 59.6404C8.488 59.7684 8.224 59.9404 7.908 60.2804C7.604 60.6004 7.4 60.9484 7.28 61.3524C7.156 61.7564 7.18 62.4084 7.328 62.8084C7.572 63.4644 8.044 64.0003 8.624 64.2883L8.972 64.4603L9.508 64.4723C10.128 64.4923 10.496 64.4243 10.884 64.2323C11.12 64.1123 11.572 63.7164 11.752 63.4604L11.84 63.3404L12.224 63.7324L12.604 64.1243L12.412 64.2243C11.98 64.4363 11.488 64.9603 11.228 65.4763L11.06 65.8123V66.4363C11.06 67.1563 11.12 67.4003 11.408 67.8483C11.628 68.1923 11.772 68.3363 12.108 68.5603C12.548 68.8522 12.804 68.9282 13.42 68.9482C13.9 68.9682 13.964 68.9602 14.244 68.8682C14.412 68.8122 14.664 68.6962 14.804 68.6162C15.152 68.4123 15.604 67.9523 15.744 67.6523L15.856 67.4123L16.268 67.7563C16.496 67.9443 16.68 68.1083 16.68 68.1203C16.676 68.1323 16.58 68.2083 16.456 68.2923C16.06 68.5682 15.744 69.0642 15.596 69.6322C15.492 70.0402 15.492 70.7762 15.592 71.1082C15.78 71.7042 16.288 72.2442 16.964 72.5602C17.38 72.7522 17.68 72.8122 18.136 72.7922C18.792 72.7642 19.264 72.5402 19.804 72.0042C20.132 71.6762 20.348 71.3042 20.388 71.0042L20.412 70.8402L20.736 71.0162C20.916 71.1122 21.136 71.2362 21.228 71.2882L21.396 71.3842L21.136 71.7042C20.996 71.8762 20.812 72.1562 20.728 72.3162L20.58 72.6162L20.564 73.2441C20.556 73.6161 20.572 73.9601 20.596 74.0841C20.764 74.8641 21.48 75.5601 22.34 75.7801C22.708 75.8721 23.5 75.8601 23.812 75.7561C24.66 75.4721 25.352 74.6321 25.432 73.7881C25.444 73.6441 25.468 73.5601 25.496 73.5721C25.52 73.5801 25.768 73.6641 26.044 73.7601L26.544 73.9361L26.312 74.3321C25.952 74.9401 25.92 75.0401 25.92 75.6121C25.92 76.1601 25.96 76.3401 26.18 76.7561C26.464 77.2961 27.024 77.784 27.592 77.984C27.824 78.064 27.936 78.08 28.424 78.08C29.268 78.08 29.672 77.928 30.18 77.4201C30.656 76.9481 30.88 76.4121 30.88 75.7521C30.88 75.5601 30.892 75.4001 30.912 75.4001C30.928 75.4001 31.168 75.4481 31.452 75.5081C32.048 75.6321 32.036 75.6161 31.816 76.0641L31.672 76.3561L31.688 77.0521L31.7 77.748L31.876 78.096C32.16 78.672 32.656 79.12 33.3 79.38C33.66 79.528 34.316 79.564 34.724 79.464C35.484 79.272 36.088 78.76 36.48 77.968C36.656 77.6121 36.684 77.3761 36.624 76.8401C36.596 76.5881 36.58 76.3721 36.584 76.3641C36.592 76.3561 36.748 76.3681 36.928 76.3921C37.112 76.4201 37.344 76.4401 37.452 76.4401C37.668 76.4401 37.672 76.4521 37.58 76.8001C37.488 77.1361 37.5 77.928 37.6 78.216C37.744 78.64 37.928 78.928 38.26 79.264C38.524 79.528 38.632 79.604 38.86 79.7C39.016 79.76 39.236 79.856 39.356 79.908C39.536 79.984 39.636 80 40 80C40.364 80 40.464 79.984 40.644 79.908C40.764 79.856 40.984 79.76 41.14 79.696C41.804 79.424 42.392 78.596 42.488 77.788C42.52 77.5281 42.512 77.3881 42.44 76.9561C42.392 76.6681 42.36 76.4281 42.368 76.4241C42.372 76.4161 42.616 76.4001 42.908 76.3881L43.436 76.3681L43.42 76.4761C43.356 76.8361 43.328 77.3481 43.36 77.5121C43.484 78.164 44.096 78.948 44.728 79.256C45.172 79.472 45.456 79.532 45.976 79.512C46.348 79.5 46.464 79.476 46.7 79.38C47.344 79.12 47.84 78.672 48.124 78.096L48.3 77.748L48.312 77.0521L48.328 76.3561L48.184 76.0641C47.964 75.6161 47.952 75.6321 48.552 75.5081C48.832 75.4481 49.072 75.4001 49.092 75.4001C49.108 75.4001 49.12 75.5601 49.12 75.7521C49.12 75.9441 49.148 76.2081 49.18 76.3361C49.384 77.1121 50.04 77.792 50.796 78.016C51.076 78.096 51.972 78.104 52.264 78.024C52.904 77.856 53.572 77.2921 53.884 76.6641L54.06 76.3081L54.072 75.7161C54.088 75.0441 54.088 75.0441 53.692 74.3481C53.572 74.1321 53.48 73.9481 53.488 73.9361C53.508 73.9201 54.504 73.5601 54.536 73.5601C54.544 73.5601 54.56 73.6641 54.572 73.7881C54.648 74.6321 55.34 75.4721 56.188 75.7561C56.5 75.8601 57.292 75.8721 57.66 75.7801C58.52 75.5601 59.236 74.8641 59.404 74.0841C59.428 73.9601 59.444 73.6161 59.436 73.2441L59.42 72.6162L59.272 72.3162C59.188 72.1562 59.004 71.8762 58.864 71.7042L58.604 71.3842L58.772 71.2882C58.864 71.2362 59.084 71.1122 59.264 71.0162L59.588 70.8402L59.612 71.0042C59.652 71.3122 59.872 71.6762 60.22 72.0202C60.772 72.5682 61.272 72.8002 61.888 72.8002C62.356 72.8002 62.684 72.7202 63.16 72.4882C63.664 72.2442 64.072 71.8482 64.304 71.3802L64.46 71.0642V70.3242V69.5802L64.328 69.3002C64.152 68.9322 63.924 68.6402 63.592 68.3683L63.32 68.1443L63.688 67.7723C63.892 67.5683 64.068 67.4003 64.08 67.4003C64.092 67.4003 64.228 67.5763 64.388 67.7923C64.896 68.4803 65.168 68.6922 65.792 68.8802C66.048 68.9602 66.148 68.9682 66.592 68.9482C67.208 68.9242 67.472 68.8442 67.916 68.5443C68.408 68.2083 68.756 67.7043 68.904 67.1243C69.004 66.7203 68.968 65.9803 68.832 65.6483C68.576 65.0323 68.108 64.4803 67.648 64.2523L67.396 64.1243L67.78 63.7324L68.16 63.3404L68.248 63.4604C68.428 63.7164 68.88 64.1123 69.116 64.2323C69.504 64.4243 69.872 64.4923 70.492 64.4723L71.028 64.4603L71.372 64.2883C71.956 64.0003 72.452 63.4284 72.684 62.7804C72.804 62.4444 72.832 61.7924 72.744 61.4404C72.64 61.0324 72.42 60.6324 72.124 60.3124C71.804 59.9644 71.476 59.7444 71.112 59.6364C70.964 59.5884 70.84 59.5444 70.84 59.5364C70.84 59.5244 70.96 59.3125 71.104 59.0565C71.288 58.7405 71.384 58.6085 71.416 58.6325C71.44 58.6525 71.604 58.7805 71.78 58.9205C71.956 59.0605 72.216 59.2285 72.36 59.2965C72.612 59.4164 72.644 59.4205 73.248 59.4324C73.616 59.4404 73.964 59.4284 74.084 59.4044C74.864 59.2365 75.56 58.5165 75.78 57.6605C75.86 57.3485 75.86 56.6125 75.78 56.3005C75.68 55.9165 75.488 55.6085 75.14 55.2565C74.756 54.8685 74.396 54.6726 73.876 54.5686L73.532 54.5006L73.728 53.9886C73.84 53.7086 73.944 53.4806 73.96 53.4806C73.976 53.4806 74.156 53.5846 74.364 53.7086C74.908 54.0366 75.044 54.0806 75.524 54.0806C76 54.0806 76.3 54.0126 76.696 53.8126C77.276 53.5246 77.744 53.0486 78.016 52.4806C78.124 52.2526 78.14 52.1686 78.152 51.8006C78.168 51.3166 78.108 50.9886 77.92 50.5766C77.664 50.0087 77.236 49.5487 76.744 49.3167C76.468 49.1847 76.244 49.1367 75.736 49.0927L75.372 49.0607L75.492 48.5487C75.592 48.1327 75.628 48.0407 75.688 48.0407C75.724 48.0407 75.896 48.0967 76.068 48.1687C76.36 48.2887 76.42 48.2967 76.956 48.3127C77.668 48.3327 77.912 48.2767 78.332 48.0007C78.804 47.6927 79.18 47.2127 79.392 46.6487C79.524 46.2887 79.56 45.6208 79.464 45.2448C79.348 44.8008 79.172 44.4928 78.82 44.1368C78.26 43.5688 77.648 43.3408 76.776 43.3688L76.312 43.3808L76.336 43.2208C76.348 43.1328 76.368 42.9048 76.384 42.7088C76.416 42.3048 76.36 42.3328 76.988 42.4248C77.788 42.5448 78.232 42.4728 78.792 42.1288C79.288 41.8328 79.572 41.4768 79.764 40.9329C79.832 40.7409 79.912 40.5329 79.944 40.4729C79.98 40.4009 80 40.2249 80 39.9409V39.5209L79.776 39.0609C79.448 38.3809 79.224 38.1129 78.736 37.8209C78.356 37.5889 78.068 37.5209 77.504 37.5209C77.184 37.5209 76.944 37.5409 76.816 37.5809C76.708 37.6129 76.572 37.6409 76.512 37.6409H76.4L76.396 37.3289C76.396 37.1609 76.38 36.9289 76.364 36.8209L76.336 36.6209L76.94 36.6329C77.476 36.6449 77.572 36.6369 77.8 36.5609C78.788 36.229 79.52 35.225 79.52 34.197C79.52 33.757 79.476 33.557 79.28 33.141C79.004 32.541 78.532 32.033 78.04 31.8051C77.836 31.7091 77.776 31.7011 77.132 31.6891L76.448 31.6771L76.104 31.8171C75.62 32.017 75.62 32.017 75.544 31.6691C75.508 31.5131 75.452 31.2771 75.424 31.1531L75.368 30.9291L75.676 30.9051C76.188 30.8651 76.444 30.8051 76.796 30.6371C77.068 30.5091 77.196 30.4171 77.44 30.1691C77.936 29.6611 78.16 29.1051 78.16 28.3491C78.16 27.6851 77.968 27.2892 77.34 26.6612C77.02 26.3412 76.876 26.2252 76.624 26.1012L76.308 25.9412L75.732 25.9292C75.048 25.9132 74.984 25.9292 74.396 26.2772C74.172 26.4132 73.972 26.5212 73.956 26.5212C73.94 26.5212 73.84 26.2932 73.728 26.0092L73.532 25.5012L73.876 25.4332C74.792 25.2492 75.556 24.5572 75.78 23.7012C75.86 23.3892 75.86 22.6533 75.78 22.3413C75.56 21.4853 74.864 20.7653 74.084 20.5973C73.964 20.5733 73.612 20.5613 73.228 20.5693C72.62 20.5813 72.568 20.5893 72.36 20.6893C72.24 20.7493 72.016 20.8973 71.86 21.0173C71.708 21.1413 71.532 21.2773 71.472 21.3213L71.368 21.4013L71.088 20.9333L70.808 20.4613L71.08 20.3773C71.44 20.2653 71.664 20.1293 71.98 19.8373C72.272 19.5653 72.516 19.1973 72.672 18.8053C72.768 18.5653 72.776 18.4893 72.776 18.0014C72.776 17.5174 72.768 17.4334 72.672 17.1934C72.42 16.5294 71.956 16.0014 71.376 15.7134L71.028 15.5414H70.28H69.536L69.26 15.6814C69.048 15.7854 68.88 15.9214 68.56 16.2414L68.14 16.6614L67.764 16.2734C67.556 16.0574 67.392 15.8774 67.404 15.8694C67.412 15.8614 67.58 15.7494 67.78 15.6214C68.384 15.2334 68.732 14.8054 68.896 14.2454C68.992 13.9214 68.984 13.2215 68.876 12.8415C68.66 12.0535 68.044 11.3935 67.284 11.1335C67.068 11.0615 66.932 11.0415 66.536 11.0415C65.976 11.0415 65.672 11.1135 65.24 11.3535C64.88 11.5495 64.404 12.0335 64.256 12.3455L64.144 12.5895L63.74 12.2535C63.52 12.0695 63.34 11.9015 63.34 11.8855C63.34 11.8695 63.456 11.7535 63.6 11.6335C63.928 11.3575 64.156 11.0615 64.328 10.7015C64.456 10.4255 64.46 10.4095 64.472 9.79353C64.484 9.29354 64.472 9.11755 64.42 8.93356C64.296 8.50956 63.976 8.06157 63.584 7.76958C62.644 7.07359 61.572 7.0096 60.676 7.59758C60.124 7.96157 59.672 8.55756 59.612 8.99755L59.588 9.16154L59.264 8.98555C59.084 8.88955 58.864 8.76556 58.772 8.71355L58.604 8.61756L58.864 8.29757C59.004 8.12557 59.188 7.84958 59.272 7.68558L59.42 7.38559L59.432 6.7576C59.448 6.04162 59.412 5.79762 59.232 5.43363C59.048 5.06963 58.588 4.61765 58.2 4.42965C57.732 4.20165 57.476 4.15366 56.84 4.16965L56.292 4.18166L55.94 4.35765C55.516 4.56565 55.056 4.99364 54.824 5.39763C54.66 5.68163 54.48 6.17361 54.48 6.34161C54.48 6.40961 54.46 6.44561 54.432 6.43361C54.404 6.42161 54.172 6.33761 53.916 6.24161L53.452 6.06561L53.632 5.78562C53.992 5.22163 54.08 4.91764 54.08 4.22166C54.08 3.85366 54.064 3.72166 53.996 3.53367C53.712 2.77369 52.96 2.1257 52.1 1.9017C51.804 1.82571 51.248 1.82571 50.96 1.9017C50.236 2.0937 49.58 2.67769 49.272 3.40167C49.164 3.66167 49.144 3.76167 49.128 4.14966C49.116 4.44965 49.096 4.60165 49.064 4.60165C48.972 4.59765 47.996 4.37766 47.996 4.36165C47.996 4.34966 48.064 4.19765 48.148 4.02166L48.3 3.70167L48.312 3.00168C48.324 2.3697 48.316 2.2737 48.244 2.0817C48.056 1.58971 47.516 1.03372 46.948 0.745728C46.56 0.549736 46.288 0.481735 45.86 0.481735C45.44 0.481735 45.132 0.549736 44.736 0.737732C44.116 1.02972 43.484 1.83371 43.36 2.48969C43.328 2.65369 43.356 3.16568 43.42 3.52567L43.436 3.63367L42.908 3.61367C42.616 3.60167 42.372 3.58567 42.364 3.57767C42.356 3.57367 42.392 3.33768 42.44 3.05368C42.564 2.3097 42.512 1.93771 42.204 1.34172C42.048 1.04173 41.684 0.621735 41.424 0.441734C41.332 0.381737 41.128 0.285744 40.968 0.225739C40.808 0.169746 40.624 0.0937424 40.56 0.0617447C40.416 -0.0142517 39.584 -0.0222549 39.46 0.0497437ZM43.04 5.13763C44.332 5.25763 45.38 5.43363 47.76 5.92962C50.152 6.42561 50.844 6.6576 53.948 7.98158C55.424 8.61356 56.548 9.16154 57.48 9.70554C62.936 12.8975 68.1 18.2573 70.912 23.6452C71.588 24.9412 72.824 27.9051 73.36 29.5211C74.052 31.6131 74.644 34.545 74.86 36.9809C74.996 38.5049 74.972 42.2728 74.82 43.8008C74.5 46.9847 73.684 49.9087 71.952 54.0766C71.116 56.0925 70.472 57.3045 69.324 59.0405C66.044 64.0003 60.88 68.6642 55.98 71.0962C54.616 71.7722 51.824 72.9402 50.56 73.3641C49.592 73.6881 49.172 73.7881 47.124 74.2001C44.472 74.7321 43.608 74.8521 41.94 74.9241C40.648 74.9841 37.688 74.9441 36.84 74.8601C35.564 74.7321 34.16 74.5081 32.68 74.1961C30.388 73.7081 29.38 73.3841 26.82 72.3202C26.228 72.0722 25.516 71.7842 25.24 71.6722C23.988 71.1762 22.56 70.3722 20.48 68.9882C18.744 67.8323 17.716 66.9963 15.992 65.3363C11.476 60.9844 8.82 56.8045 6.816 50.9046C5.864 48.0967 5.332 45.6328 5.112 42.9808C5.044 42.1688 5.048 37.7689 5.116 36.9209C5.408 33.245 6.24 30.1931 8.248 25.4412C9.392 22.7373 11.056 20.1373 13.36 17.4414C15.952 14.4134 19.272 11.6055 22.46 9.73753C23.884 8.90556 26.216 7.84958 28.588 6.96559C31.204 5.98962 35.016 5.21764 37.88 5.08163C38.956 5.02964 42.26 5.06564 43.04 5.13763Z" fill="#D40000"/>
  <path d="M37.76 6.50961C29.668 6.9736 22 10.5655 15.92 16.7454C14.184 18.5094 12.792 20.2693 11.532 22.2813C8.63197 26.9212 7.03597 31.9051 6.55197 37.8209C6.46797 38.8369 6.48397 42.2848 6.57197 43.1008C6.86797 45.7968 7.44397 48.3967 8.31197 50.9606C8.79597 52.3926 9.13597 53.1966 9.80397 54.5206C11.784 58.4405 13.66 61.0404 16.604 63.9404C17.592 64.9123 18.228 65.4803 19.152 66.2203C23.968 70.0682 29.716 72.5162 35.72 73.2802C37.22 73.4682 37.732 73.4962 39.8 73.5002C41.824 73.5002 42.288 73.4802 43.72 73.3162C50.072 72.5962 56.096 70.0722 61.076 66.0443C62.852 64.6043 64.688 62.7684 66.108 61.0124C70.104 56.0725 72.6119 50.0967 73.3159 43.8408C73.4799 42.3848 73.4999 41.9808 73.4999 39.9209C73.4959 37.8049 73.4719 37.3249 73.2759 35.761C72.4599 29.1931 69.716 23.1453 65.1759 17.9294C64.54 17.1974 62.72 15.3694 62 14.7414C56.256 9.72554 49.504 6.9976 41.64 6.52161C41.048 6.48562 38.32 6.47762 37.76 6.50961ZM41.36 6.84161C42.96 6.89761 44.032 7.0016 45.6 7.2656C48.684 7.77759 52.088 8.89756 54.64 10.2295C58.368 12.1815 61.956 14.7094 63.16 16.2414C63.2999 16.4174 63.556 16.6814 63.732 16.8294C64.248 17.2654 65.136 18.2694 66.076 19.4733C67.3639 21.1293 68.832 23.4652 69.82 25.4372C71.476 28.7411 72.5839 32.509 72.9959 36.221C73.2719 38.6889 73.2479 41.8088 72.936 44.2808C72.476 47.9527 71.2599 51.8486 69.6119 54.9406C67.6199 58.6765 65.22 62.0284 63.676 63.2324C63.528 63.3484 63.336 63.5364 63.24 63.6564C63.148 63.7804 62.8279 64.1164 62.524 64.4084C61.28 65.6203 58.944 67.3283 56.64 68.7083C55.344 69.4882 54.76 69.7842 53.28 70.4042C49.988 71.7842 49.456 71.9562 46.94 72.4562C44.2 72.9962 43.396 73.1002 41.412 73.1682C40.316 73.2042 39.684 73.2042 38.592 73.1682C36.536 73.1002 35.684 72.9842 32.776 72.3962C30.668 71.9722 29.932 71.7482 27.98 70.9282C27.564 70.7522 26.888 70.4722 26.48 70.3042C25.516 69.9002 24.872 69.5842 23.94 69.0482C21.528 67.6643 18.84 65.7363 17.476 64.4084C17.172 64.1164 16.852 63.7804 16.76 63.6604C16.668 63.5404 16.436 63.3204 16.248 63.1684C14.684 61.9164 12.18 58.3685 10.208 54.6006C8.71597 51.7526 7.56797 48.0247 7.07997 44.4608C6.72797 41.8528 6.72797 38.1929 7.07997 35.581C7.63997 31.4731 8.89597 27.6852 10.88 24.1212C11.64 22.7533 12.824 20.9173 13.64 19.8453C14.664 18.4974 15.74 17.2654 16.288 16.8094C16.448 16.6734 16.696 16.4294 16.836 16.2654C17.34 15.6694 18.752 14.4534 20.18 13.3895C20.804 12.9215 22.676 11.6815 23.536 11.1655C24.552 10.5535 25.404 10.1455 26.852 9.56555C32.668 7.2416 35.796 6.65361 41.36 6.84161Z" fill="#D40000"/>
  <path d="M39.9679 7.98959C39.8959 8.02559 39.7879 8.11758 39.7279 8.19358C39.5879 8.37358 39.5599 8.74157 39.6599 9.04156C39.7119 9.19756 39.7159 9.26156 39.6839 9.29356C39.6479 9.32956 39.2359 9.34556 38.2599 9.35356L36.8799 9.36556V9.52155V9.68155H37.7599H38.6399V10.3015C38.6399 11.0015 38.6039 11.1575 38.4039 11.2575C38.3399 11.2935 38.2039 11.3215 38.1079 11.3215C37.8599 11.3215 37.7799 11.2255 37.7799 10.9135C37.7799 10.7015 37.7919 10.6615 37.8919 10.5775C37.9559 10.5255 38.0759 10.4695 38.1639 10.4575C38.3239 10.4295 38.3239 10.4295 38.3119 10.2655C38.2999 10.1015 38.2999 10.1015 38.1199 10.0895C37.8759 10.0695 37.6359 10.1455 37.4599 10.2935C37.2679 10.4495 37.1999 10.6175 37.1999 10.9215C37.1999 11.2855 37.3519 11.5375 37.6679 11.6975C37.8399 11.7855 38.4079 11.7895 38.4799 11.7015C38.5079 11.6695 38.5559 11.6415 38.5839 11.6415C38.6279 11.6415 38.6399 11.7175 38.6399 11.9815V12.3215H38.8799H39.1199V11.6615C39.1199 10.9255 39.1479 10.8055 39.3559 10.6295C39.5159 10.4935 39.7159 10.4855 39.8239 10.6055C39.8839 10.6735 39.8999 10.7455 39.8959 10.9575C39.8919 11.2575 39.8559 11.3375 39.6519 11.5655C39.5759 11.6495 39.5199 11.7455 39.5319 11.7695C39.5439 11.7975 39.6359 11.8655 39.7359 11.9215L39.9239 12.0215L40.0599 11.8615C40.1319 11.7735 40.2519 11.6015 40.3279 11.4855C40.4359 11.3015 40.4599 11.2175 40.4719 10.9735C40.4879 10.7175 40.4759 10.6615 40.3839 10.5055C40.2039 10.1975 40.1279 10.1615 39.6679 10.1615C39.3519 10.1615 39.2519 10.1735 39.1919 10.2295C39.1239 10.2895 39.1199 10.2815 39.1199 9.98954V9.68155H39.9199H40.7199V9.52155V9.36156H40.2399C39.9479 9.36156 39.7599 9.34556 39.7599 9.32156C39.7599 9.29756 39.8679 9.28156 39.9999 9.28156C40.2679 9.28156 40.2759 9.27356 40.1799 9.00156C40.0759 8.70957 40.0999 8.54957 40.2599 8.40558C40.4559 8.23358 40.6999 8.22958 40.8919 8.40158C41.0359 8.52557 41.2679 8.98556 41.3079 9.21756L41.3319 9.36156H41.1039H40.8799V9.56155V9.76155H41.0599H41.2399V9.91354C41.2399 9.99354 41.2119 10.3855 41.1759 10.7815C41.1079 11.5455 41.1159 12.1095 41.1999 12.2895C41.2479 12.3895 41.2719 12.4015 41.4599 12.4015H41.6679L41.6919 12.1495C41.7039 12.0135 41.7439 11.4375 41.7839 10.8695L41.8559 9.84155H42.0079H42.1599V9.64155V9.44155H42.0039C41.8519 9.44155 41.8519 9.43755 41.8279 9.26556C41.7639 8.81757 41.4399 8.24958 41.1319 8.04558C40.9519 7.92559 40.9279 7.92159 40.5239 7.92159C40.2119 7.92159 40.0639 7.94159 39.9679 7.98959Z" fill="#D40000"/>
  <path d="M32.82 8.68554C32.688 8.76154 32.436 9.01353 32.376 9.12953C32.3 9.27753 32.304 9.90551 32.38 10.0415C32.472 10.2015 32.452 10.2375 32.272 10.2495L32.1 10.2615L32.088 10.4495L32.076 10.6415H32.312C32.456 10.6415 32.568 10.6615 32.592 10.6895C32.612 10.7175 32.644 10.8495 32.66 10.9815C32.676 11.1135 32.768 11.5455 32.864 11.9415C32.96 12.3375 33.052 12.7454 33.064 12.8494L33.092 13.0414H33.32C33.476 13.0414 33.568 13.0214 33.6 12.9814C33.676 12.8894 33.628 12.5335 33.468 11.9815C33.304 11.4175 33.16 10.7455 33.16 10.5455C33.16 10.4175 33.172 10.4015 33.26 10.4015C33.352 10.4015 33.36 10.3855 33.36 10.2215C33.36 10.0295 33.36 10.0295 33.12 10.0415C32.928 10.0495 32.84 9.94551 32.816 9.67752C32.788 9.40552 32.884 9.20953 33.08 9.11353C33.2 9.05353 33.276 9.04953 33.64 9.08153C34.296 9.14153 35.508 9.48152 35.356 9.56152C35.324 9.57752 34.9 9.64152 34.412 9.70552L33.52 9.81751V10.0535V10.2935L33.672 10.2695C33.752 10.2575 33.948 10.2335 34.1 10.2175L34.384 10.1935L34.456 10.4975C34.496 10.6615 34.516 10.8175 34.504 10.8375C34.488 10.8575 34.388 10.9055 34.28 10.9415C34.012 11.0295 34.016 11.1135 34.292 11.3815C34.528 11.6135 34.804 11.7615 34.992 11.7615C35.096 11.7615 35.124 11.7415 35.144 11.6575C35.184 11.5015 35.136 10.8695 35.06 10.4695C35.02 10.2775 34.996 10.1135 35.004 10.1055C35.012 10.0975 35.168 10.0775 35.344 10.0615C35.664 10.0335 35.668 10.0335 35.692 10.1255C35.704 10.1775 35.792 10.7295 35.884 11.3495L36.056 12.4815H36.368C36.672 12.4815 36.68 12.4775 36.66 12.3895C36.628 12.2495 36.28 9.97751 36.28 9.90551C36.28 9.86551 36.316 9.84151 36.38 9.84151C36.472 9.84151 36.48 9.82951 36.48 9.64152V9.44152H36.168C35.896 9.44152 35.844 9.42952 35.776 9.35352C35.68 9.24553 35.092 8.96553 34.6 8.79754C34.24 8.67354 34.18 8.66554 33.56 8.65354C33.112 8.64554 32.876 8.65354 32.82 8.68554Z" fill="#D40000"/>
  <path d="M47.984 9.20152C47.948 9.28952 47.92 9.42552 47.92 9.49752V9.63351L48.224 9.66151C48.392 9.67751 48.544 9.67351 48.564 9.65351C48.58 9.63751 48.608 9.50152 48.624 9.35752L48.648 9.09353L48.496 9.06953C48.408 9.05353 48.276 9.04153 48.196 9.04153C48.06 9.04153 48.044 9.05753 47.984 9.20152Z" fill="#D40000"/>
  <path d="M29.744 9.46157C29.708 9.51757 29.652 9.60557 29.616 9.66157L29.552 9.75756L30.284 10.1256C30.964 10.4655 31.012 10.4935 30.94 10.5495C30.896 10.5775 30.816 10.6135 30.76 10.6255C30.568 10.6695 30.56 10.6775 30.56 10.8575C30.56 11.0415 30.6 11.0815 30.776 11.0815C30.888 11.0815 31.048 11.2335 31.136 11.4215C31.172 11.4935 31.272 11.8295 31.356 12.1695C31.512 12.7695 31.616 13.1095 31.724 13.3375C31.776 13.4455 31.788 13.4495 31.988 13.4335C32.108 13.4215 32.22 13.3975 32.244 13.3735C32.272 13.3455 32.188 12.9495 31.964 12.0935C31.784 11.4135 31.64 10.8455 31.64 10.8295C31.64 10.8135 31.684 10.8015 31.744 10.8015C31.84 10.8015 31.844 10.7935 31.832 10.6095L31.82 10.4215L31.604 10.4095C31.4 10.3975 31.344 10.3695 30.636 9.87756C30.224 9.59357 29.868 9.36157 29.848 9.36157C29.828 9.36157 29.78 9.40557 29.744 9.46157Z" fill="#D40000"/>
  <path d="M44.88 9.97353V10.1895L45.432 10.3015C45.732 10.3615 45.996 10.4255 46.012 10.4415C46.04 10.4695 45.956 11.0215 45.896 11.1975C45.884 11.2375 45.804 11.1855 45.64 11.0215C45.492 10.8775 45.416 10.7695 45.428 10.7295C45.448 10.6895 45.432 10.6775 45.376 10.6935C45.336 10.7095 45.212 10.7375 45.108 10.7655C44.972 10.7975 44.92 10.8295 44.936 10.8695C44.948 10.8975 45.152 11.3815 45.384 11.9415C45.86 13.0735 45.812 13.0175 46.164 12.8895L46.352 12.8215L46.1 12.2975L45.852 11.7775L46.152 11.6015C46.32 11.5055 46.46 11.4415 46.468 11.4655C46.476 11.4855 46.516 11.5615 46.56 11.6335C46.652 11.7815 46.776 11.8415 47.004 11.8415C47.196 11.8415 47.196 11.8455 47.06 12.4495C47.004 12.6935 46.96 12.9495 46.96 13.0215C46.96 13.3135 47.28 13.4815 47.424 13.2615C47.46 13.2055 47.532 12.9575 47.584 12.7095C47.632 12.4615 47.72 12.0815 47.772 11.8615C47.828 11.6415 47.888 11.3535 47.9 11.2215C47.936 10.9255 47.968 10.8815 48.164 10.8815H48.32V10.6695V10.4575L46.652 10.1095C45.732 9.91754 44.956 9.76154 44.932 9.76154C44.896 9.76154 44.88 9.82954 44.88 9.97353ZM47.408 10.9175C47.392 11.2455 47.336 11.4295 47.248 11.4575C47.212 11.4695 47.08 11.4535 46.96 11.4215C46.84 11.3895 46.692 11.3615 46.632 11.3615C46.556 11.3615 46.52 11.3415 46.52 11.2975C46.52 11.2255 46.6 10.6815 46.616 10.6215C46.624 10.5935 46.764 10.5935 47.028 10.6175L47.424 10.6535L47.408 10.9175Z" fill="#D40000"/>
  <path d="M48.652 10.8415C48.604 11.0855 48.556 11.0495 49.26 11.2815C49.548 11.3775 49.784 11.4575 49.788 11.4615C49.82 11.4855 49.484 12.2215 49.436 12.2295C49.404 12.2375 49.316 12.1295 49.22 11.9575L49.064 11.6775L48.9 11.6895L48.74 11.7015L48.744 12.0415C48.744 12.3495 48.768 12.4455 48.992 13.0974C49.128 13.4894 49.24 13.8574 49.24 13.9134C49.24 14.0054 49.252 14.0094 49.392 13.9854C49.472 13.9734 49.616 13.9414 49.708 13.9134L49.876 13.8614L49.62 13.2814L49.364 12.7014L49.648 12.6734C49.816 12.6534 49.96 12.6174 50.004 12.5775C50.072 12.5175 50.076 12.5255 50.124 12.6814C50.18 12.8694 50.288 12.9614 50.448 12.9614C50.524 12.9614 50.556 12.9374 50.568 12.8774C50.58 12.7974 50.584 12.7974 50.676 12.8974L50.772 13.0014H50.66H50.548L50.572 13.2374C50.596 13.5414 50.712 13.7894 50.928 14.0254C51.196 14.3214 51.412 14.4014 51.932 14.4014C52.168 14.4014 52.36 14.4134 52.36 14.4294C52.36 14.4414 52.296 14.5654 52.22 14.7054C52.132 14.8614 52.08 15.0094 52.08 15.1014C52.08 15.2294 52.096 15.2534 52.22 15.3054C52.296 15.3334 52.412 15.3614 52.476 15.3614C52.588 15.3614 52.612 15.3254 53.148 14.2614L53.7 13.1614L53.82 13.1854C53.888 13.1974 53.956 13.2134 53.976 13.2174C53.996 13.2174 54.036 13.1454 54.064 13.0534C54.1 12.9254 54.104 12.8774 54.068 12.8494C54.016 12.8054 53.052 12.3215 53.024 12.3215C53.012 12.3215 52.948 12.4055 52.876 12.5055C52.736 12.7134 52.748 12.7374 53.012 12.7814C53.16 12.8094 53.164 12.8134 53.14 12.9334C53.092 13.1734 52.88 13.5574 52.712 13.6974C52.624 13.7774 52.46 13.8694 52.356 13.9014C52.088 13.9894 51.616 13.9934 51.448 13.9054C51.324 13.8414 51.16 13.6334 51.16 13.5374C51.16 13.5094 51.296 13.4854 51.512 13.4694C51.992 13.4374 52.248 13.3334 52.352 13.1334C52.38 13.0854 52.4 12.8774 52.4 12.6574C52.4 12.3135 52.388 12.2495 52.3 12.0935C52.232 11.9775 52.128 11.8815 51.988 11.8015C51.808 11.6975 51.74 11.6815 51.488 11.6815C51.216 11.6815 51.184 11.6895 51.076 11.7975C50.968 11.9095 50.96 11.9335 50.96 12.2495C50.96 12.5535 50.968 12.5974 51.056 12.6774C51.108 12.7254 51.224 12.7774 51.312 12.7894C51.472 12.8094 51.476 12.8094 51.5 12.6694C51.52 12.5695 51.508 12.5015 51.46 12.4255C51.396 12.3295 51.396 12.3135 51.456 12.2215C51.548 12.0815 51.736 12.0855 51.828 12.2295C51.928 12.3815 51.924 12.6854 51.816 12.8294C51.68 13.0094 51.5 13.0574 51.168 13.0014C50.908 12.9574 50.888 12.9494 50.868 12.8414C50.836 12.6894 50.652 12.5695 50.372 12.5135C50.244 12.4855 50.136 12.4615 50.128 12.4575C50.12 12.4535 50.164 12.2855 50.224 12.0855L50.336 11.7215L50.556 11.7335L50.78 11.7415L50.792 11.5415L50.804 11.3415L49.792 11.0055C49.236 10.8215 48.76 10.6615 48.736 10.6535C48.708 10.6455 48.676 10.7215 48.652 10.8415Z" fill="#D40000"/>
  <path d="M30.16 10.7495C29.392 11.0135 28.02 11.5575 27.448 11.8255L27.036 12.0135L27.048 12.1575C27.06 12.2855 27.076 12.3015 27.18 12.3135C27.252 12.3215 27.528 12.2415 27.908 12.0975C28.244 11.9735 28.528 11.8775 28.536 11.8855C28.544 11.8935 28.56 11.9375 28.576 11.9855C28.6 12.0615 28.564 12.0855 28.292 12.2015C27.936 12.3575 27.66 12.5295 27.624 12.6215C27.58 12.7415 27.6 12.9415 27.664 13.0375C27.744 13.1535 28.072 13.3615 28.168 13.3615C28.228 13.3615 28.24 13.3975 28.24 13.6135C28.24 13.8255 28.256 13.8815 28.332 13.9535C28.424 14.0415 28.952 14.2415 29.088 14.2415C29.128 14.2415 29.436 14.0335 29.772 13.7815L30.38 13.3255L30.456 13.5535C30.496 13.6775 30.536 13.7855 30.536 13.7895C30.56 13.8175 31.052 13.6975 31.064 13.6615C31.076 13.6375 30.884 13.0815 30.64 12.4295C30.4 11.7735 30.2 11.2295 30.2 11.2215C30.2 11.2175 30.256 11.1895 30.324 11.1655C30.408 11.1375 30.44 11.1015 30.428 11.0655C30.416 11.0335 30.392 10.9415 30.376 10.8655C30.352 10.7215 30.304 10.6975 30.16 10.7495ZM29.892 12.0775C30.16 12.8015 30.164 12.7335 29.828 13.1895C29.608 13.4855 29.356 13.6495 29.108 13.6495C28.876 13.6535 28.84 13.6255 28.84 13.4415C28.84 13.2575 28.968 13.1335 29.208 13.0975C29.38 13.0695 29.384 13.0575 29.292 12.8615C29.212 12.6935 29.172 12.6895 28.824 12.8215C28.516 12.9375 28.26 12.9535 28.224 12.8575C28.208 12.8095 28.316 12.7415 28.7 12.5615C28.976 12.4335 29.2 12.3095 29.2 12.2895C29.2 12.2655 29.172 12.1135 29.136 11.9415C29.1 11.7735 29.08 11.6295 29.088 11.6255C29.1 11.6135 29.588 11.4575 29.64 11.4455C29.652 11.4455 29.764 11.7295 29.892 12.0775Z" fill="#D40000"/>
  <path d="M24.624 11.6855C24.588 11.7375 24.56 11.8015 24.56 11.8255C24.56 11.8495 24.872 12.0015 25.252 12.1575C25.628 12.3175 25.956 12.4615 25.976 12.4815C25.996 12.5015 25.92 12.5615 25.812 12.6135C25.56 12.7415 25.512 12.8055 25.528 12.9695L25.54 13.1015L25.8 13.0935L26.064 13.0855L26.636 14.2014C26.948 14.8174 27.22 15.3214 27.236 15.3214C27.296 15.3214 27.68 14.9934 27.676 14.9494C27.676 14.9214 27.428 14.4254 27.124 13.8414L26.572 12.7815L26.704 12.7095C26.78 12.6735 26.84 12.6335 26.84 12.6215C26.84 12.6135 26.8 12.5215 26.752 12.4215C26.664 12.2455 26.66 12.2415 26.472 12.2415C26.236 12.2415 26.064 12.1735 25.504 11.8695C24.984 11.5815 24.732 11.5295 24.624 11.6855Z" fill="#D40000"/>
  <path d="M23.168 12.5055C23.116 12.6095 23.088 12.7055 23.108 12.7215C23.124 12.7375 23.468 12.8655 23.872 13.0015L24.604 13.2535L24.492 13.3215C24.428 13.3575 24.044 13.5734 23.632 13.7974C23.216 14.0254 22.88 14.2254 22.88 14.2454C22.88 14.2974 23.036 14.6014 23.064 14.6014C23.072 14.6014 23.152 14.5654 23.24 14.5214C23.328 14.4774 23.404 14.4414 23.416 14.4414C23.428 14.4414 23.52 14.6014 23.62 14.7974C23.848 15.2374 24.096 15.4894 24.404 15.5774C24.52 15.6134 24.648 15.6414 24.688 15.6414C24.728 15.6414 24.76 15.6494 24.76 15.6614C24.76 15.6734 24.66 15.8174 24.54 15.9814C24.42 16.1414 24.32 16.2974 24.32 16.3174C24.32 16.3814 24.54 16.4814 24.672 16.4814C24.816 16.4814 24.86 16.4294 25.1 16.0014C25.348 15.5534 25.52 15.2814 25.556 15.2814C25.572 15.2814 25.656 15.4254 25.74 15.6054C25.828 15.7814 25.912 15.9374 25.924 15.9454C25.944 15.9574 26.436 15.7774 26.468 15.7454C26.476 15.7414 26.2 15.2054 25.86 14.5614C25.52 13.9174 25.244 13.3855 25.252 13.3815C25.256 13.3815 25.312 13.3575 25.372 13.3295L25.484 13.2815L25.396 13.1215C25.312 12.9735 25.292 12.9615 25.14 12.9615C24.904 12.9615 24.62 12.8695 24.028 12.5935C23.744 12.4615 23.452 12.3455 23.384 12.3335C23.268 12.3175 23.252 12.3255 23.168 12.5055ZM24.98 14.2094C25.252 14.7294 25.224 15.0094 24.896 15.1454C24.772 15.1974 24.74 15.1974 24.62 15.1374C24.46 15.0614 24.16 14.6454 24.044 14.3374L23.964 14.1334L24.332 13.9254C24.76 13.6894 24.7 13.6654 24.98 14.2094Z" fill="#D40000"/>
  <path d="M54.1 13.1455C54.024 13.3455 54.016 13.3255 54.248 13.4695C54.404 13.5655 54.388 13.5975 53.676 14.9054C53.252 15.6774 53.208 15.8254 53.368 15.9374C53.416 15.9734 53.532 16.0014 53.624 16.0014H53.792L54.344 14.9374C54.948 13.7815 54.88 13.8615 55.16 13.9454C55.204 13.9574 55.252 13.9054 55.312 13.7815L55.396 13.6055L55.228 13.5095C54.988 13.3695 54.204 12.9615 54.188 12.9615C54.18 12.9615 54.14 13.0455 54.1 13.1455Z" fill="#D40000"/>
  <path d="M38.4 13.4655C37.404 13.5455 37.084 13.5815 36.46 13.6655C31.872 14.2775 27.448 16.1334 23.78 18.9814C22.076 20.3013 20.3 22.0773 18.98 23.7812C16.132 27.4492 14.276 31.8731 13.664 36.461C13.48 37.8209 13.46 38.1769 13.46 40.0409C13.46 41.9449 13.492 42.4008 13.704 43.8608C15.392 55.4206 24.58 64.6084 36.14 66.2963C37.616 66.5123 38.052 66.5403 40 66.5403C41.9479 66.5403 42.3839 66.5123 43.8599 66.2963C53.7559 64.8524 62.0559 57.8805 65.2359 48.3407C65.8399 46.5248 66.2359 44.6608 66.4679 42.5008C66.5199 41.9968 66.5359 41.4849 66.5399 40.0809C66.5399 38.2609 66.5159 37.8209 66.3559 36.581C64.9319 25.6052 56.6719 16.5374 45.8639 14.0815C44.7839 13.8375 43.8199 13.6775 42.5199 13.5375C41.9759 13.4775 38.9 13.4255 38.4 13.4655ZM41.8399 13.8015C43.6199 13.8895 45.4999 14.2415 47.6319 14.8854C48.9999 15.3014 50.1919 15.7734 51.4199 16.3894C53.3839 17.3774 54.8839 18.3214 56.3399 19.4973C57.6079 20.5213 59.3839 22.2973 60.4839 23.6413C62.0119 25.5092 63.4719 28.0092 64.3799 30.3011C65.2639 32.5451 65.9159 35.069 66.1399 37.141C66.2239 37.9009 66.2639 40.5609 66.2079 41.7209C66.1079 43.7528 65.7039 45.8088 64.9519 48.1127C64.5159 49.4567 64.1799 50.2807 63.6319 51.3766C60.8199 56.9925 57.0079 60.8124 51.4039 63.6204C48.5719 65.0403 44.8359 66.0523 41.8599 66.2003C40.8639 66.2523 38.788 66.2523 37.9799 66.2003C36.944 66.1323 35.508 65.9083 34.14 65.5963C33.228 65.3883 30.624 64.5284 29.604 64.0924C28.196 63.4964 26.192 62.3644 24.86 61.4204C22.824 59.9725 20.516 57.7165 18.952 55.6326C17.756 54.0446 16.552 51.9486 15.788 50.1207C14.912 48.0247 14.172 45.3248 13.9 43.2408C13.712 41.8049 13.712 38.2649 13.9 36.821C14.164 34.773 14.82 32.2891 15.636 30.2451C16.524 28.0252 17.98 25.5412 19.496 23.6613C20.508 22.4053 22.184 20.7253 23.564 19.5733C25.34 18.0934 27.916 16.5734 30.16 15.6814C32.932 14.5774 35.932 13.8575 38.04 13.7895C38.9319 13.7615 41.1439 13.7655 41.8399 13.8015Z" fill="#D40000"/>
  <path d="M38.624 15.6614C37.396 15.7294 37.024 15.7654 36.996 15.8054C36.94 15.8934 36.776 16.4214 36.64 16.9494C36.568 17.2134 36.48 17.4894 36.436 17.5574C36.328 17.7374 36.092 17.8374 35.608 17.9054C35.092 17.9774 35.208 17.9454 33.352 18.4853C32.524 18.7253 31.812 18.9213 31.772 18.9213C31.732 18.9213 31.456 18.7013 31.16 18.4373C30.424 17.7734 30.384 17.7494 30.072 17.7694C29.784 17.7894 29.436 17.9334 28.62 18.3733C27.548 18.9533 26.036 19.9093 25.692 20.2253L25.52 20.3813L25.6 21.4613L25.676 22.5413L25.564 22.6813C25.504 22.7572 25.228 23.0172 24.956 23.2572C23.968 24.1212 23.788 24.3012 23.224 24.9532C22.452 25.8532 22.26 26.0412 22.108 26.0412C22.044 26.0412 21.556 25.9852 21.028 25.9212C20.5 25.8532 20.064 25.8052 20.06 25.8092C20.024 25.8452 19.076 27.4291 18.648 28.1611C17.944 29.3691 17.52 30.2051 17.52 30.3731C17.52 30.5451 17.56 30.5971 18.268 31.3451C18.596 31.6931 18.84 31.985 18.84 32.029C18.84 32.069 18.624 32.869 18.36 33.801C18.048 34.897 17.844 35.701 17.78 36.069C17.676 36.6929 17.564 37.0049 17.404 37.1169C17.348 37.1569 17 37.3009 16.632 37.4329C16.264 37.5689 15.896 37.7129 15.812 37.7569L15.656 37.8329L15.564 38.7089C15.476 39.5409 15.472 39.6369 15.516 40.6249C15.56 41.6808 15.648 42.5968 15.724 42.8328C15.796 43.0568 16.18 43.2848 16.784 43.4568C16.98 43.5168 17.256 43.5728 17.4 43.5848L17.66 43.6088L17.808 44.2168C18.068 45.2768 18.672 47.4127 18.82 47.7927C19.056 48.4087 19.052 48.4247 18.324 49.6127C17.944 50.2286 17.912 50.2966 17.932 50.4406C17.976 50.7846 18.644 51.9926 19.5 53.2806C20.116 54.2006 20.508 54.6966 20.644 54.7126C20.696 54.7165 21.132 54.6366 21.612 54.5286L22.48 54.3326L22.812 54.6366C22.992 54.8045 23.428 55.2365 23.78 55.5965C24.132 55.9565 24.836 56.6205 25.34 57.0685C25.848 57.5205 26.268 57.9125 26.272 57.9445C26.28 57.9805 26.152 58.2525 25.988 58.5525C25.448 59.5444 25.432 59.6004 25.632 59.7884C26.364 60.4724 29.104 62.1044 29.604 62.1524C29.844 62.1764 29.932 62.1284 30.848 61.4724L31.52 60.9964L32.028 61.1844C33.14 61.5844 35.144 62.1044 35.76 62.1484L36.06 62.1724L36.156 62.4724C36.296 62.9084 36.736 63.7724 36.908 63.9523C37.092 64.1443 37.184 64.1723 38 64.2803C38.812 64.3883 40.164 64.4283 40.924 64.3643C41.576 64.3083 42.128 64.2203 42.276 64.1483C42.356 64.1123 42.476 63.9083 42.768 63.3284C42.984 62.9004 43.188 62.4684 43.228 62.3644L43.296 62.1724L43.736 62.1484C44.34 62.1204 45.752 61.8404 46.18 61.6604C46.356 61.5884 46.796 61.3924 47.156 61.2244C47.516 61.0564 47.836 60.9204 47.868 60.9204C47.956 60.9204 48.196 61.0564 48.888 61.4964C49.676 61.9964 49.836 62.0804 50.008 62.0804C50.236 62.0804 52.188 61.0804 52.8 60.6484C52.944 60.5484 53.34 60.2484 53.68 59.9804C54.02 59.7124 54.36 59.4564 54.432 59.4044C54.5 59.3564 54.56 59.2964 54.56 59.2765C54.56 59.2525 54.404 58.9765 54.216 58.6565L53.872 58.0805L54.232 57.6885C54.428 57.4765 55.244 56.6525 56.04 55.8645L57.492 54.4326L57.676 54.4526C57.776 54.4646 58.096 54.5406 58.38 54.6206C58.668 54.7006 59.02 54.7765 59.164 54.7885L59.424 54.8085L59.608 54.5966C59.864 54.2926 60.3 53.6686 61.12 52.4406C62.18 50.8526 62.64 50.1327 62.64 50.0727C62.64 50.0447 62.412 49.7687 62.136 49.4607C61.456 48.7047 61.16 48.3327 61.16 48.2287C61.16 48.1807 61.328 47.6167 61.536 46.9767C62.092 45.2568 62.472 43.8248 62.48 43.4208C62.484 43.3088 62.552 43.2568 63.484 42.6448C64.184 42.1848 64.472 41.9768 64.444 41.9448C64.42 41.9168 64.428 41.6568 64.464 41.2408C64.492 40.8769 64.52 40.3209 64.52 40.0089C64.52 39.5009 64.396 37.4569 64.34 37.0129L64.316 36.8489L63.948 36.6889C63.744 36.5969 63.384 36.4529 63.148 36.365C62.34 36.061 62.212 35.953 62.12 35.501C61.96 34.713 61.572 33.241 61.36 32.641C61.2 32.181 61.108 31.8531 61.092 31.6811L61.068 31.4171L61.328 31.0811C61.468 30.8931 61.68 30.6131 61.8 30.4611C62.248 29.8771 62.26 29.6931 61.896 28.9691C61.456 28.0971 60.16 26.0132 59.684 25.4092C59.52 25.2012 59.516 25.2012 59.288 25.2012C59.164 25.2012 58.88 25.2452 58.66 25.3012C58.44 25.3532 58.088 25.4092 57.872 25.4252L57.484 25.4532L57.208 25.1972C57.06 25.0572 56.468 24.5052 55.896 23.9772C55.328 23.4452 54.656 22.8332 54.412 22.6173C54.12 22.3613 53.96 22.1933 53.96 22.1413C53.96 22.0973 53.996 21.6053 54.044 21.0493C54.128 20.0573 54.132 20.0373 54.056 19.9573C54.016 19.9093 53.728 19.7053 53.42 19.5013C52.212 18.7013 50.064 17.5654 49.688 17.5294C49.432 17.5054 49.376 17.5374 48.64 18.1213C48.304 18.3853 47.984 18.6293 47.924 18.6573C47.708 18.7653 47.156 18.6493 45.604 18.1653C44.828 17.9254 44.532 17.8614 43.94 17.8014C43.412 17.7494 43.284 17.7134 43.148 17.5694C43.092 17.5094 42.868 17.1094 42.652 16.6774C42.432 16.2454 42.216 15.8414 42.168 15.7734L42.084 15.6574L41.452 15.6094C40.664 15.5494 40.576 15.5494 38.624 15.6614ZM41.716 20.0253C45.448 20.4093 49.128 22.1213 52.46 25.0172C55.992 28.0931 59.028 33.017 59.876 37.0649C60.112 38.1849 60.136 38.4889 60.136 40.4609C60.132 42.3128 60.1 42.9208 59.956 43.9408C59.672 45.9127 59.052 47.8167 58.04 49.8407C57.568 50.7806 57.08 51.4886 56.144 52.5806C55.576 53.2406 54.228 54.6046 53.66 55.0885C53.108 55.5565 52.668 55.8845 52.636 55.8485C52.62 55.8325 51.9 54.6406 51.032 53.1966L49.456 50.5726L50.512 49.5607C51.092 49.0047 51.608 48.4847 51.656 48.4047C51.708 48.3247 52.004 47.8687 52.316 47.3887C52.968 46.3927 53.156 46.0567 53.436 45.3688C53.824 44.4168 54.096 43.4808 54.26 42.5048C54.428 41.4968 54.46 41.0248 54.46 39.4409C54.46 38.0609 54.452 37.8969 54.368 37.4209C54.004 35.337 53.164 33.381 51.728 31.2811C51.004 30.2211 50.532 29.6731 49.596 28.8131C48.812 28.0931 48.424 27.7891 47.604 27.2532C46.484 26.5172 46.288 26.4132 45.28 26.0012C44.752 25.7852 44.22 25.5612 44.096 25.5052C43.972 25.4492 43.812 25.4012 43.74 25.4012C43.672 25.4012 43.328 25.3252 42.976 25.2292L42.34 25.0612H40.04C37.992 25.0612 37.7 25.0692 37.36 25.1332C35.968 25.3972 34.528 25.9252 33.212 26.6572C31.976 27.3451 31.128 27.9611 30.264 28.8011C27.964 31.0411 26.704 33.325 26.38 35.841C26.328 36.237 26.316 36.5889 26.328 37.5209C26.344 38.5929 26.356 38.7489 26.452 39.2409C26.728 40.6529 27.232 42.1728 27.784 43.2448C28.1 43.8608 29.036 45.2208 29.768 46.1327C30.248 46.7327 31.048 47.5167 31.328 47.6607C31.456 47.7287 31.556 47.7927 31.548 47.8047C31.38 48.1927 27.496 55.6405 27.464 55.6405C27.38 55.6405 26.548 54.8725 25.636 53.9646C24.696 53.0206 24.584 52.8806 23.452 51.2606C22.152 49.4007 21.512 48.1207 20.78 45.9007C20.348 44.5928 20.044 43.3368 19.912 42.2808C19.84 41.7168 19.844 38.5689 19.912 37.9209C20.112 36.113 20.564 34.521 21.64 31.841C21.984 30.9811 22.2 30.5451 22.628 29.8291C23.804 27.8731 26.076 25.3852 28.02 23.9212C29.416 22.8732 31.3 21.8493 32.98 21.2213C34.812 20.5373 36.86 20.0613 38.4 19.9613C39.088 19.9133 41.016 19.9533 41.716 20.0253ZM40.848 25.7212C42.512 25.8012 43.86 26.1132 45.284 26.7372C47.132 27.5531 49.108 29.1251 50.532 30.9211C52.184 33.001 53.356 35.493 53.66 37.5769C53.812 38.6249 53.772 41.0888 53.584 42.2048C53.244 44.2168 52.512 45.9687 51.392 47.4527C50.748 48.3087 49.62 49.5407 49.252 49.7967L49.124 49.8807L47.624 47.3807L46.12 44.8768L46.324 44.5408C46.852 43.6608 47.296 42.3928 47.516 41.1208C47.644 40.4049 47.68 39.9049 47.68 38.9529C47.68 38.2249 47.664 38.0049 47.596 37.6689C47.38 36.6009 46.816 35.357 46.068 34.301C45 32.801 43.212 31.6691 41.424 31.3611C40.812 31.2571 39.188 31.2451 38.524 31.3451C37.7 31.4651 36.972 31.6811 36.248 32.025C35.628 32.317 35.164 32.629 34.744 33.037C33.608 34.137 32.844 35.421 32.62 36.6129C32.528 37.1089 32.536 38.7849 32.636 39.2609C32.752 39.8129 32.932 40.2569 33.304 40.9089C33.712 41.6128 33.768 41.6928 34.152 42.0728C34.36 42.2808 34.44 42.3888 34.42 42.4328C34.396 42.5008 32.292 46.5087 32.06 46.9327L31.932 47.1647L31.624 46.9207C31.088 46.4847 30.088 45.4848 29.768 45.0568C28.188 42.9488 27.112 40.1209 27.008 37.7889C26.928 36.037 27.22 34.653 28.02 33.021C28.664 31.7011 29.436 30.6451 30.584 29.5131C32.14 27.9811 33.932 26.8812 35.94 26.2252C37.364 25.7612 38.752 25.6172 40.848 25.7212ZM41.06 32.005C42.888 32.277 44.616 33.425 45.764 35.137C47.032 37.0209 47.312 39.0089 46.68 41.5888C46.464 42.4648 45.86 44.0768 45.74 44.0968C45.68 44.1048 45.116 43.2328 44.664 42.4408C44.444 42.0568 44.06 41.3928 43.808 40.9688C43.56 40.5449 43.3 40.0809 43.236 39.9409C43.12 39.7009 43.116 39.6729 43.156 39.4569C43.22 39.1169 43.212 38.4169 43.14 38.1409C42.944 37.3809 42.292 36.5049 41.468 35.893C41.184 35.685 40.5 35.337 40.296 35.297L40.16 35.273V35.001C40.16 34.553 39.856 33.641 39.512 33.065C39.224 32.577 38.82 32.213 38.9 32.509C39.024 32.973 38.98 33.473 38.732 34.449C38.56 35.129 38.536 35.201 38.46 35.201C38.328 35.201 37.856 35.373 37.52 35.541C36.9 35.853 36.16 36.4049 36.16 36.5569C36.16 36.5929 36.268 36.7289 36.396 36.8569L36.632 37.0929L37.04 36.7649C37.472 36.4169 37.736 36.265 37.976 36.221C38.124 36.193 38.128 36.193 38.1 36.285C38.084 36.337 38.004 36.5329 37.924 36.7209L37.78 37.0609L37.768 37.9289C37.756 38.7569 37.76 38.8209 37.856 39.1969C38.02 39.8249 38.116 39.7609 37.012 39.7649C36.488 39.7649 35.988 39.7769 35.9 39.7929L35.74 39.8209L35.296 40.6929C35.052 41.1728 34.836 41.5808 34.812 41.6048C34.756 41.6608 34.388 41.2728 34.136 40.8969C33.756 40.3249 33.432 39.5329 33.3 38.8329C33.22 38.4009 33.22 37.6009 33.304 37.0729C33.72 34.457 35.72 32.549 38.56 32.057C39.296 31.929 40.388 31.909 41.06 32.005ZM39.58 34.453C39.76 35.013 39.82 36.117 39.7 36.5809C39.556 37.1289 38.716 39.2129 38.58 39.3569C38.536 39.4009 38.512 39.3849 38.428 39.2569C38.244 38.9769 38.188 38.6809 38.188 38.0009C38.184 37.1529 38.22 37.0169 38.82 35.701C39.12 35.041 39.3 34.529 39.344 34.185C39.372 34.005 39.376 33.997 39.428 34.065C39.456 34.105 39.528 34.281 39.58 34.453ZM40.7 36.241C41.296 36.5809 42.028 37.3809 42.328 38.0249C42.456 38.2969 42.46 38.3129 42.472 38.9809L42.488 39.6609L40.816 39.6489C39.892 39.6409 39.136 39.6289 39.128 39.6209C39.12 39.6129 39.376 38.8049 39.7 37.8249L40.284 36.045L40.392 36.085C40.452 36.109 40.592 36.177 40.7 36.241ZM44.16 42.7048C44.788 43.8408 45.304 44.7848 45.312 44.8008C45.32 44.8168 45.192 45.0248 45.036 45.2648C44.704 45.7567 44.008 46.4847 43.5 46.8687C42.04 47.9687 40.364 48.6487 38.54 48.8847C37.972 48.9567 36.3 48.9447 35.82 48.8647C35.288 48.7767 34.752 48.6287 34.272 48.4367C33.78 48.2407 32.672 47.6887 32.688 47.6487C32.712 47.5847 35.052 43.0208 35.064 43.0048C35.072 42.9968 35.312 43.1368 35.596 43.3168C36.216 43.7048 36.576 43.8808 37.06 44.0248C37.376 44.1208 37.508 44.1328 38.128 44.1528C38.9 44.1728 39.224 44.1288 39.8 43.9328C40.98 43.5288 42.12 42.5928 42.608 41.6208C42.736 41.3728 42.88 40.9089 42.88 40.7569C42.88 40.6729 42.9 40.6409 42.952 40.6409C43 40.6449 43.336 41.2128 44.16 42.7048ZM36.472 41.3968C36.696 41.5248 37.064 41.7008 37.288 41.7928C37.936 42.0488 38.168 42.0808 39.332 42.0808C40.292 42.0808 40.36 42.0768 40.624 41.9848C41.016 41.8528 41.292 41.7088 41.556 41.5128C41.78 41.3408 41.812 41.3088 41.88 41.2008C41.896 41.1688 41.928 41.1528 41.94 41.1688C41.956 41.1848 41.916 41.2648 41.852 41.3488C41.788 41.4328 41.62 41.6688 41.48 41.8728C41.14 42.3768 40.812 42.6688 40.284 42.9368C39.448 43.3608 38.968 43.4648 38.064 43.4208C37.476 43.3928 37.044 43.3048 36.752 43.1568C36.656 43.1088 36.384 42.9368 36.144 42.7728C35.904 42.6088 35.648 42.4528 35.576 42.4208C35.5 42.3888 35.44 42.3568 35.44 42.3448C35.44 42.2968 36.02 41.1608 36.044 41.1608C36.056 41.1608 36.252 41.2648 36.472 41.3968ZM46 46.0087C46.14 46.2567 47.292 48.2767 48.56 50.5006C52.408 57.2405 53.32 58.8765 53.32 59.0565C53.32 59.1845 52.772 59.5724 51.86 60.0884C51.212 60.4564 50.04 61.0804 49.996 61.0804C49.984 61.0804 49.632 60.8444 49.216 60.5564C48.432 60.0164 48.136 59.8404 48.004 59.8404C47.96 59.8404 47.388 60.0684 46.732 60.3444C45.904 60.6924 45.4 60.8804 45.08 60.9604C44.416 61.1244 43.164 61.3564 42.64 61.4084C42.552 61.4204 42.5 61.5164 42.136 62.3804L41.728 63.3404L41.092 63.4284C40.744 63.4764 40.344 63.5164 40.2 63.5164C39.948 63.5204 37.948 63.3724 37.776 63.3404C37.712 63.3244 37.596 63.1164 37.256 62.3844L36.82 61.4444L36.6 61.4204C35.852 61.3404 35.3 61.1964 33.548 60.6164C32.116 60.1404 31.6 60.0044 31.268 60.0004C31.084 60.0004 31.06 60.0124 30.688 60.3444C29.964 60.9884 29.704 61.1604 29.448 61.1604C29.26 61.1604 28.768 60.9284 28.332 60.6364C27.992 60.4084 26.6 59.3684 26.6 59.3444C26.6 59.3324 32.284 48.3807 32.3 48.3687C32.328 48.3367 32.624 48.4527 33.4 48.8007C34.5 49.2927 35.004 49.4687 35.56 49.5567C35.704 49.5807 36.436 49.6007 37.188 49.6007C38.72 49.6007 39.064 49.5687 39.988 49.3407C41.228 49.0367 42.036 48.7047 43.016 48.0927C43.92 47.5247 44.112 47.3567 45.088 46.2687C45.44 45.8807 45.732 45.5607 45.74 45.5607C45.744 45.5607 45.864 45.7647 46 46.0087Z" fill="#D40000"/>
  <path d="M40.24 51.5846C39.764 51.7446 39.484 51.8166 39.232 51.8406C38.82 51.8766 38.732 51.9286 38.416 52.3126C38.04 52.7726 37.644 53.6406 37.504 54.3366C37.328 55.1725 37.52 56.0885 37.944 56.4805L38.12 56.6405H38.528C39.008 56.6405 39.188 56.5765 39.392 56.3445C39.508 56.2125 39.52 56.1725 39.52 55.9405C39.52 55.7965 39.492 55.6125 39.456 55.5205C39.4 55.3805 39.376 55.3605 39.26 55.3605C39.176 55.3605 39.08 55.3965 39.004 55.4645C38.9 55.5485 38.88 55.5965 38.88 55.7405C38.88 56.0285 38.828 56.1205 38.656 56.1205C38.472 56.1205 38.296 55.9525 38.256 55.7405C38.184 55.3565 38.444 54.5685 38.712 54.3606C38.86 54.2406 39.024 54.2566 39.096 54.3926C39.208 54.6045 39.252 54.6165 39.464 54.4845L39.66 54.3646L39.72 54.5325C39.764 54.6565 39.808 54.7045 39.876 54.7125C40.216 54.7605 40.316 54.5525 40.32 53.8086V53.2806H40.216C40.044 53.2806 39.964 53.3526 39.936 53.5246C39.912 53.6686 39.772 53.9086 39.736 53.8686C39.724 53.8606 39.8 53.6006 39.9 53.2926C40 52.9846 40.08 52.7086 40.08 52.6846C40.08 52.6566 39.988 52.6406 39.828 52.6406C39.62 52.6406 39.552 52.6606 39.44 52.7406C39.364 52.7966 39.26 52.8406 39.204 52.8406H39.108L39.2 52.7406C39.372 52.5566 39.692 52.4286 40 52.4246C40.152 52.4246 40.296 52.4406 40.32 52.4646C40.344 52.4886 40.372 52.6046 40.388 52.7246C40.4 52.8446 40.448 52.9886 40.492 53.0486C40.568 53.1526 40.568 53.1646 40.496 53.9766L40.424 54.8005L40.572 54.9525C40.748 55.1325 40.756 55.1925 40.612 55.2085C40.508 55.2205 40.5 55.2365 40.488 55.4125C40.472 55.6565 40.548 55.7845 40.772 55.8805C41.064 56.0085 41.22 56.0205 41.32 55.9205C41.4 55.8405 41.408 55.8005 41.396 55.3685C41.392 55.1085 41.4 54.3046 41.42 53.5806C41.448 52.3766 41.448 52.2566 41.388 52.2046C41.304 52.1366 41.3 51.9486 41.38 51.8806C41.468 51.8046 41.456 51.5366 41.36 51.4406C41.228 51.3086 40.976 51.3406 40.24 51.5846Z" fill="#D40000"/>
  <path d="M41.72 52.2406C41.648 52.3126 41.64 52.3726 41.64 52.9286C41.644 53.2646 41.624 53.7566 41.596 54.0206C41.572 54.2846 41.548 54.8526 41.544 55.2806C41.54 56.0445 41.544 56.0645 41.64 56.2365C41.696 56.3325 41.776 56.4365 41.824 56.4645C41.904 56.5205 41.904 56.5165 41.972 55.3885C42.04 54.3006 42.064 52.3526 42.016 52.2246C41.98 52.1366 41.816 52.1446 41.72 52.2406Z" fill="#D40000"/>
  <path d="M32.504 53.2006C31.992 53.3086 31.94 53.3366 31.768 53.6166C31.68 53.7486 31.488 54.0326 31.34 54.2406C31.024 54.6845 30.88 54.9565 30.88 55.1005C30.88 55.1765 30.936 55.2525 31.072 55.3725C31.416 55.6765 31.74 56.0245 31.86 56.2245C31.952 56.3725 32.032 56.4485 32.2 56.5325C32.32 56.5925 32.444 56.6725 32.472 56.7085C32.54 56.8005 32.532 56.9605 32.46 56.9605C32.432 56.9605 32.312 56.9805 32.2 57.0045C32.004 57.0445 32 57.0485 32 57.1965C32 57.4805 32.116 57.7245 32.384 57.9885L32.632 58.2405H33.068H33.5L33.636 58.4365C33.768 58.6325 33.856 58.6645 33.896 58.5285C33.904 58.4885 33.924 58.2805 33.94 58.0605C33.952 57.8405 33.972 57.5965 33.984 57.5165L34.004 57.3685L34.392 57.3525C34.712 57.3405 34.824 57.3165 35.032 57.2205C35.296 57.1005 35.36 57.0325 35.36 56.8645C35.36 56.7365 35.224 56.6485 34.808 56.4965L34.516 56.3885L34.656 56.2445C34.784 56.1125 34.8 56.0725 34.8 55.8925C34.8 55.7125 34.812 55.6845 34.892 55.6645C34.944 55.6525 35.036 55.5965 35.092 55.5445C35.192 55.4485 35.2 55.4245 35.2 55.0885C35.2 54.7605 35.188 54.7125 35.048 54.4166C34.964 54.2446 34.872 54.0126 34.844 53.9006C34.776 53.6286 34.744 53.6006 34.492 53.6006C34.284 53.6006 34.256 53.5886 34.04 53.4006C33.916 53.2926 33.764 53.1846 33.704 53.1606C33.536 53.0966 32.896 53.1166 32.504 53.2006ZM32.268 53.8446C32.224 54.2166 31.984 54.5045 31.784 54.4286C31.684 54.3886 31.7 54.1206 31.816 53.9646C31.928 53.8126 32.152 53.6406 32.232 53.6406C32.28 53.6406 32.288 53.6806 32.268 53.8446ZM32.896 54.0086C32.908 54.0366 32.924 54.1206 32.936 54.1886C32.956 54.3006 32.948 54.3206 32.876 54.3206C32.76 54.3206 32.568 54.4286 32.52 54.5245C32.452 54.6445 32.304 54.6125 32.288 54.4686C32.272 54.3446 32.4 54.1126 32.532 54.0206C32.636 53.9486 32.876 53.9406 32.896 54.0086ZM34.84 54.5885C34.952 54.8485 35.056 55.0845 35.068 55.1085C35.104 55.1925 34.904 55.1685 34.76 55.0685C34.572 54.9445 34.476 54.7605 34.452 54.4846C34.424 54.2046 34.448 54.1206 34.556 54.1206C34.612 54.1206 34.676 54.2286 34.84 54.5885ZM31.816 54.9245C31.92 54.9725 31.928 54.9885 31.904 55.1525C31.872 55.3765 31.856 55.4005 31.724 55.4005C31.488 55.4005 31.184 55.0805 31.252 54.9045C31.296 54.7965 31.564 54.8045 31.816 54.9245ZM34.48 55.4885C34.48 55.7965 34.428 55.9045 34.22 56.0445C34.016 56.1845 33.392 56.3925 33.08 56.4285C32.844 56.4525 32.84 56.4485 32.84 56.3525C32.84 56.1645 32.98 56.0485 33.332 55.9405C33.712 55.8245 33.88 55.7325 33.984 55.5765C34.132 55.3605 34.272 55.2405 34.376 55.2405C34.476 55.2405 34.48 55.2485 34.48 55.4885Z" fill="#D40000"/>
  <path d="M46.588 53.6606C46.496 53.7446 46.432 53.7606 46.24 53.7606C45.96 53.7606 45.596 53.8846 45.412 54.0406L45.288 54.1526L45.012 54.1006C44.852 54.0686 44.724 54.0606 44.704 54.0846C44.68 54.1046 44.664 54.2966 44.664 54.5126C44.66 54.9486 44.636 54.8886 45.016 55.3406C45.228 55.5885 45.228 55.7565 45.024 55.9445C44.832 56.1205 44.828 56.2645 45.016 56.3405C45.168 56.4045 45.988 56.5605 46.176 56.5605C46.3 56.5605 46.304 56.5685 46.5 57.1005C46.688 57.6045 46.708 57.6405 46.804 57.6405C46.92 57.6405 46.92 57.6445 46.984 56.9325L47.008 56.6445L47.276 56.4685C47.668 56.2085 47.688 56.2005 48.048 56.2005C48.468 56.2005 48.56 56.1485 48.56 55.9125C48.56 55.7805 48.536 55.7285 48.42 55.6245C48.248 55.4646 48.244 55.3886 48.4 55.1486C48.652 54.7486 48.72 54.5766 48.72 54.3206V54.0806L48.532 54.0766C48.216 54.0686 48.14 54.0366 48.128 53.8886L48.116 53.7606H47.556C47.02 53.7606 46.988 53.7566 46.864 53.6606C46.792 53.6046 46.724 53.5606 46.716 53.5606C46.708 53.5606 46.648 53.6086 46.588 53.6606ZM46.284 54.3286C46.316 54.4046 46.34 54.6006 46.34 54.8006C46.34 55.1166 46.336 55.1406 46.256 55.1526C46.18 55.1646 46.164 55.1326 46.104 54.8766C46.036 54.5806 46.02 54.2726 46.068 54.2286C46.132 54.1606 46.236 54.2086 46.284 54.3286Z" fill="#D40000"/>
  <path d="M55.456 13.9054C55.432 14.0454 55.44 14.0654 55.576 14.1814C55.66 14.2494 55.964 14.4494 56.252 14.6254C56.544 14.7974 56.848 15.0014 56.932 15.0774C57.08 15.2094 57.12 15.3334 57.036 15.3854C57.012 15.3974 56.964 15.4614 56.924 15.5254L56.856 15.6374L56.056 15.2014C55.62 14.9654 55.248 14.7774 55.232 14.7894C55.168 14.8254 55.196 15.6734 55.264 15.8414C55.34 16.0294 55.392 16.0414 55.524 15.8974C55.576 15.8414 55.672 15.7574 55.732 15.7134L55.844 15.6334L56.16 15.8254C56.336 15.9334 56.48 16.0374 56.48 16.0574C56.48 16.0854 55.968 16.9574 55.772 17.2694C55.716 17.3494 55.728 17.3654 55.924 17.4974C56.056 17.5854 56.152 17.6254 56.176 17.6014C56.2 17.5814 56.524 17.1174 56.9 16.5694L57.576 15.5734L57.78 15.5774L57.98 15.5814L57.992 15.4374C58.004 15.3014 57.988 15.2774 57.772 15.1134C57.136 14.6254 55.836 13.8214 55.612 13.7774C55.492 13.7534 55.484 13.7574 55.456 13.9054Z" fill="#D40000"/>
  <path d="M19.416 16.8854C18.824 17.3934 18.324 17.8253 18.304 17.8453C18.264 17.8813 18.5 18.1613 18.568 18.1613C18.588 18.1613 18.736 18.0613 18.896 17.9413C19.056 17.8213 19.208 17.7213 19.236 17.7213C19.308 17.7213 19.528 17.8373 19.632 17.9333C19.772 18.0613 19.752 18.2733 19.58 18.4973C19.42 18.7053 19.412 18.7613 19.512 18.8493C19.684 19.0013 19.832 19.0413 20.24 19.0413C20.564 19.0413 20.672 19.0253 20.8 18.9613C21.008 18.8573 21.232 18.6253 21.32 18.4333L21.388 18.2813L21.616 18.5213L21.848 18.7653L22.064 18.5773C22.26 18.4133 22.276 18.3853 22.232 18.3213C22.204 18.2813 21.824 17.8533 21.392 17.3694C20.956 16.8854 20.6 16.4734 20.6 16.4574C20.6 16.4414 20.64 16.3854 20.684 16.3334L20.772 16.2454L20.664 16.1014C20.604 16.0254 20.54 15.9614 20.524 15.9614C20.508 15.9614 20.008 16.3774 19.416 16.8854ZM20.5 17.1694C20.856 17.5534 21.04 17.8173 21.04 17.9453C21.04 18.2893 20.664 18.6213 20.308 18.5933L20.144 18.5813L20.14 18.1253V17.6734L19.92 17.4774L19.7 17.2854L19.92 17.0614C20.04 16.9414 20.148 16.8414 20.164 16.8414C20.18 16.8414 20.332 16.9894 20.5 17.1694Z" fill="#D40000"/>
  <path d="M61.136 16.8414C61.088 16.8574 60.94 16.9774 60.808 17.1014L60.56 17.3294L60.436 17.2414L60.312 17.1534L60.176 17.2854C60.1 17.3574 60.04 17.4294 60.04 17.4414C60.04 17.4574 60.1 17.5374 60.176 17.6254L60.312 17.7814L59.412 18.6893L58.512 19.5973L58.632 19.7493C58.696 19.8333 58.792 19.9373 58.84 19.9813L58.924 20.0573L59.232 19.7413C60.448 18.4693 60.74 18.1934 60.8 18.2374C60.932 18.3333 60.968 18.3293 61.1 18.2014L61.236 18.0694L61.148 17.9494C61.1 17.8854 61.044 17.8094 61.024 17.7854C61.004 17.7534 61.028 17.6734 61.096 17.5654C61.232 17.3534 61.424 17.2654 61.668 17.3014C62.02 17.3534 62.2 17.6214 62.48 18.5213C62.576 18.8173 62.692 19.1613 62.748 19.2773C62.852 19.5173 63.02 19.7613 63.084 19.7613C63.14 19.7613 63.128 19.3293 63.056 18.9573C62.868 17.9654 62.464 17.1934 61.988 16.9214C61.808 16.8174 61.74 16.8014 61.5 16.8054C61.348 16.8054 61.184 16.8214 61.136 16.8414Z" fill="#D40000"/>
  <path d="M16.06 18.2094C15.948 18.2854 15.812 18.4254 15.74 18.5374C15.636 18.7053 15.62 18.7813 15.608 19.0573C15.588 19.4813 15.664 19.6013 16.068 19.8013L16.352 19.9413L15.756 20.6533C15.32 21.1693 15.16 21.3813 15.176 21.4333C15.192 21.4733 15.252 21.5573 15.316 21.6173L15.432 21.7293L16.12 20.9453C16.496 20.5133 16.82 20.1613 16.836 20.1613C16.852 20.1613 16.916 20.2133 16.98 20.2813L17.092 20.4013L16.912 20.6293C16.208 21.5293 16.24 21.4773 16.24 21.7493C16.24 21.9933 16.244 22.0013 16.452 22.2173L16.66 22.4373L17.208 22.4853C17.572 22.5173 17.832 22.5213 17.988 22.4973L18.22 22.4613L18.232 22.2293L18.244 22.0013H17.804C17.112 22.0013 16.76 21.8853 16.76 21.6613C16.76 21.5373 17.028 21.1493 17.296 20.8853L17.516 20.6693L18.14 21.2413L18.764 21.8093L18.888 21.6973C18.952 21.6333 19.04 21.5333 19.084 21.4733L19.16 21.3653L18.292 20.6173C17.812 20.2053 17.376 19.8293 17.324 19.7773L17.228 19.6893L17.32 19.5613L17.412 19.4333L17.232 19.2533L17.052 19.0733L16.976 19.2253C16.888 19.4013 16.772 19.4453 16.524 19.4013C16.292 19.3613 16.172 19.2653 16.116 19.0813C16.012 18.7333 16.228 18.4414 16.584 18.4414C16.74 18.4414 17.004 18.5174 17.332 18.6574L17.484 18.7253L17.32 18.9093L17.156 19.0933L17.288 19.2293C17.356 19.3013 17.432 19.3613 17.456 19.3613C17.48 19.3613 17.564 19.2933 17.648 19.2133L17.8 19.0653L18.128 19.4213C18.54 19.8813 19.12 20.4493 19.372 20.6453C19.624 20.8453 19.76 20.8493 19.896 20.6693C19.956 20.5933 20 20.5093 20 20.4813C20 20.4533 19.604 20.0293 19.124 19.5453L18.244 18.6614L18.34 18.5414L18.436 18.4214L18.312 18.2934C18.16 18.1374 18.12 18.1334 18.004 18.2574L17.916 18.3494L17.608 18.2294C17.332 18.1174 17.248 18.1054 16.78 18.0894L16.26 18.0734L16.06 18.2094Z" fill="#D40000"/>
  <path d="M61.148 18.2174C61.088 18.2654 61.04 18.3174 61.04 18.3374C61.04 18.3534 61.316 18.6574 61.652 19.0094C61.984 19.3614 62.268 19.6653 62.276 19.6893C62.284 19.7093 62.24 19.7813 62.176 19.8453L62.068 19.9573L61.744 19.6653C61.316 19.2774 61.184 19.2014 60.948 19.2014C60.708 19.2014 60.58 19.2654 60.368 19.4974C60.172 19.7093 60.144 19.7933 60.168 20.1533C60.188 20.4773 60.264 20.6453 60.564 21.0093L60.792 21.2893L60.692 21.5333L60.596 21.7733L60.8 21.9773C61.032 22.2133 61.036 22.2093 61.144 21.7973L61.212 21.5293L61.388 21.5093C61.652 21.4813 61.76 21.3613 61.76 21.0933C61.76 20.8093 61.676 20.7213 61.404 20.7213C61.28 20.7213 61.184 20.7453 61.144 20.7813C61.064 20.8613 60.948 20.8573 60.868 20.7693C60.62 20.4933 60.624 19.8973 60.876 19.7613C61.064 19.6613 61.148 19.7093 61.636 20.1813C61.896 20.4333 62.124 20.6413 62.144 20.6413C62.164 20.6413 62.3 20.5253 62.44 20.3813C62.58 20.2373 62.712 20.1213 62.728 20.1213C62.748 20.1213 62.844 20.1973 62.94 20.2853L63.12 20.4493L63.264 20.3413L63.408 20.2293L62.436 19.2534C61.9 18.7174 61.416 18.2414 61.36 18.2014C61.26 18.1294 61.256 18.1334 61.148 18.2174Z" fill="#D40000"/>
  <path d="M63.364 20.6573L63.232 20.7933L63.98 21.6613L64.728 22.5253L64.856 22.4293C64.924 22.3733 64.976 22.3173 64.972 22.3053C64.968 22.2733 63.524 20.5213 63.504 20.5213C63.5 20.5213 63.436 20.5813 63.364 20.6573Z" fill="#D40000"/>
  <path d="M14.852 21.8493C14.592 22.1413 13.6 23.6172 13.6 23.7212C13.6 23.7812 13.824 23.9212 13.92 23.9212C13.94 23.9212 14.14 23.6532 14.364 23.3213L14.768 22.7253L15.004 22.8853C15.26 23.0573 15.32 23.1373 15.32 23.3133C15.32 23.5013 15.204 23.5692 14.86 23.5932L14.56 23.6132V23.8452V24.0812H15.172C15.716 24.0812 16.248 24.0492 16.872 23.9772C17.1 23.9532 17.112 23.9292 17.052 23.6412L17.028 23.5093L16.564 23.5372C16.308 23.5532 16.012 23.5732 15.908 23.5892L15.712 23.6132L15.776 23.4893C15.844 23.3533 15.864 22.8613 15.804 22.7653C15.784 22.7333 15.644 22.6333 15.492 22.5413C15.144 22.3293 15.092 22.2093 15.248 21.9933C15.288 21.9373 15.284 21.9093 15.224 21.8453C15.124 21.7333 14.956 21.7373 14.852 21.8493Z" fill="#D40000"/>
  <path d="M62.448 21.8253C62.284 21.9093 62.14 22.0933 62.06 22.3172C61.972 22.5692 61.976 23.2572 62.072 23.4412C62.136 23.5772 62.148 23.5812 62.392 23.5932C62.672 23.6052 62.676 23.5972 62.58 23.3212C62.496 23.0812 62.5 22.6532 62.596 22.4812C62.7 22.2812 62.936 22.2013 63.168 22.2812C63.372 22.3532 63.488 22.5052 63.496 22.7052C63.5 22.8572 63.5 22.8612 63.3 22.9012C63.192 22.9252 63.1 22.9612 63.1 22.9852C63.104 23.0052 63.116 23.1172 63.136 23.2332L63.168 23.4492L63.376 23.4132C63.712 23.3612 64.028 23.3772 64.112 23.4532C64.212 23.5452 64.228 23.5412 64.352 23.3972C64.544 23.1732 64.544 23.1772 64.224 23.0572L63.928 22.9452L63.912 22.6572C63.9 22.4132 63.88 22.3412 63.78 22.1933C63.712 22.1013 63.568 21.9693 63.464 21.9013C63.292 21.7973 63.224 21.7813 62.924 21.7693C62.664 21.7613 62.548 21.7773 62.448 21.8253Z" fill="#D40000"/>
  <path d="M64.928 22.6933L64.76 22.7813L65.36 23.7132C65.688 24.2252 66.02 24.7412 66.096 24.8572L66.236 25.0732L66.016 25.2212C65.892 25.3012 65.78 25.3612 65.768 25.3532C65.752 25.3452 65.636 25.2692 65.512 25.1812C65.3 25.0332 65.284 25.0092 65.28 24.8572C65.276 24.4812 65.016 23.9692 64.72 23.7692C64.596 23.6852 64.544 23.6772 64.252 23.6892C63.96 23.7012 63.912 23.7132 63.776 23.8212C63.696 23.8892 63.572 24.0412 63.504 24.1612C63.392 24.3612 63.38 24.4172 63.364 24.8132C63.356 25.0492 63.364 25.3052 63.376 25.3812C63.404 25.5212 63.404 25.5212 63.616 25.5212H63.828L63.852 25.0772C63.884 24.5492 63.948 24.3772 64.156 24.2932C64.264 24.2452 64.344 24.2412 64.476 24.2652C64.704 24.3132 64.808 24.4452 64.832 24.7372L64.848 24.9572L64.676 24.9692L64.5 24.9812L64.488 25.2052L64.476 25.4292L64.848 25.4532C65.28 25.4812 65.4 25.5092 65.4 25.5812C65.4 25.6092 65.208 25.7732 64.972 25.9452C64.732 26.1172 64.444 26.3252 64.332 26.4092L64.12 26.5612L64.256 26.7732C64.332 26.8852 64.412 26.9772 64.436 26.9732C64.46 26.9652 64.928 26.6732 65.476 26.3212C66.024 25.9692 66.504 25.6692 66.54 25.6572C66.58 25.6412 66.644 25.6652 66.7 25.7212L66.796 25.8092L66.916 25.7212C66.988 25.6732 67.028 25.6172 67.012 25.5892C67 25.5612 66.944 25.4732 66.892 25.3932L66.8 25.2412L66.984 25.0732C67.236 24.8372 67.364 24.7852 67.532 24.8572C67.736 24.9412 67.88 25.1372 67.88 25.3292C67.88 25.5372 67.692 25.8932 67.464 26.1172L67.292 26.2852L67.208 26.0852L67.124 25.8852L66.952 25.9372C66.768 25.9892 66.768 25.9852 66.816 26.3212L66.844 26.5012L65.74 27.0372C64.524 27.6332 64.56 27.6012 64.732 27.9012C64.876 28.1571 64.964 28.1451 65.728 27.7492C66.088 27.5612 66.556 27.3132 66.768 27.1892L67.156 26.9692L67.204 27.0852C67.228 27.1492 67.264 27.2132 67.284 27.2252C67.304 27.2332 67.408 27.1972 67.52 27.1412L67.724 27.0372L67.64 26.9012L67.552 26.7612L67.72 26.5692C67.812 26.4652 67.964 26.2572 68.056 26.1012C68.216 25.8292 68.22 25.8132 68.232 25.4012C68.248 24.9812 68.248 24.9812 68.112 24.7812C68.04 24.6692 67.892 24.5212 67.784 24.4492C67.616 24.3372 67.556 24.3212 67.332 24.3212C67.068 24.3212 66.832 24.4052 66.72 24.5412C66.688 24.5772 66.656 24.6812 66.644 24.7732L66.62 24.9372L65.92 23.7732C65.5 23.0693 65.196 22.6053 65.16 22.6053C65.128 22.6053 65.024 22.6453 64.928 22.6933Z" fill="#D40000"/>
  <path d="M13.12 24.4892C12.956 24.7772 12.816 25.0372 12.808 25.0612C12.804 25.0852 12.872 25.1332 12.964 25.1612L13.132 25.2172L13.26 25.0732L13.384 24.9252L14.5 25.5292C15.336 25.9772 15.632 26.1212 15.68 26.0932C15.776 26.0332 15.868 25.7332 15.816 25.6532C15.764 25.5692 15.5 25.4052 14.528 24.8572C14.116 24.6252 13.764 24.4212 13.744 24.4012C13.72 24.3772 13.724 24.3092 13.748 24.2212C13.792 24.0853 13.788 24.0733 13.696 24.0413C13.42 23.9333 13.444 23.9173 13.12 24.4892Z" fill="#D40000"/>
  <path d="M12.592 25.3932C12.34 25.7212 12.196 26.0372 12.208 26.2172C12.22 26.3732 12.228 26.3812 12.364 26.3932C12.48 26.4012 12.52 26.3852 12.576 26.3052C12.664 26.1652 12.764 26.1732 13.108 26.3372L13.396 26.4772L13.312 26.6692C13.192 26.9452 13.088 27.0812 12.996 27.0812C12.952 27.0812 12.796 27.0172 12.652 26.9412C12.032 26.6132 11.52 26.8972 11.52 27.5771C11.52 27.8251 11.532 27.8571 11.64 27.9651C11.744 28.0691 11.784 28.0851 11.948 28.0731L12.14 28.0611L12.152 27.8931C12.164 27.7451 12.152 27.7251 12.072 27.7131C11.992 27.7011 11.98 27.6771 11.98 27.5411C11.98 27.3891 11.988 27.3811 12.104 27.3692C12.184 27.3612 12.336 27.4051 12.5 27.4771L12.768 27.6011L12.74 27.7891C12.728 27.8971 12.704 28.0211 12.692 28.0691C12.672 28.1571 12.68 28.1611 12.944 28.1611C13.156 28.1611 13.272 28.1371 13.44 28.0571C13.728 27.9251 13.92 27.7731 13.92 27.6851C13.92 27.6451 13.84 27.5451 13.74 27.4651C13.64 27.3811 13.56 27.2852 13.56 27.2492C13.56 27.1732 13.744 26.7612 13.78 26.7612C13.792 26.7612 14.012 26.8652 14.272 26.9972C14.932 27.3292 14.88 27.3252 15.076 27.0412L15.244 26.8012L14.108 26.2332L12.972 25.6692L13.024 25.4732C13.072 25.2812 13.072 25.2772 12.976 25.2372C12.8 25.1732 12.74 25.1972 12.592 25.3932Z" fill="#D40000"/>
  <path d="M10.528 35.741C10.308 35.837 10.156 35.965 10.036 36.153C9.92798 36.321 9.91998 36.369 9.91998 36.709C9.91998 36.957 9.93998 37.121 9.97598 37.193C10.044 37.3169 10.3 37.5689 10.428 37.6369C10.556 37.7009 11.14 37.6929 11.272 37.6249C11.428 37.5449 11.656 37.289 11.756 37.093C11.864 36.873 11.868 36.485 11.764 36.261C11.672 36.061 11.428 35.825 11.232 35.741C11.048 35.665 10.704 35.665 10.528 35.741Z" fill="#D40000"/>
  <path d="M69.9959 35.873C69.7359 36.041 69.5999 36.313 69.5999 36.665C69.5999 36.997 69.6839 37.1969 69.9039 37.4089C70.1119 37.6089 70.3039 37.6809 70.6199 37.6809C70.9439 37.6809 71.1279 37.5969 71.3479 37.3449C71.7319 36.909 71.6759 36.333 71.2039 35.909L71.0399 35.761H70.6079C70.2039 35.761 70.1639 35.769 69.9959 35.873Z" fill="#D40000"/>
  <path d="M10.34 45.3368L9.06 45.5848L9.072 45.9008C9.08 46.0768 9.1 46.2367 9.12 46.2567C9.14 46.2767 9.68 46.2087 10.46 46.0768L11.76 45.8608V45.5728C11.76 45.2928 11.712 45.0768 11.652 45.0848C11.632 45.0848 11.044 45.2008 10.34 45.3368Z" fill="#D40000"/>
  <path d="M68.264 45.2888C68.252 45.3408 68.24 45.4888 68.24 45.6248V45.8688L68.532 45.8928C68.688 45.9048 69.108 45.9808 69.46 46.0608C69.84 46.1488 70.256 46.2168 70.488 46.2288C70.936 46.2528 70.916 46.2728 70.932 45.8248L70.94 45.5888L69.72 45.3968C69.048 45.2888 68.452 45.2008 68.396 45.2008C68.32 45.2008 68.284 45.2248 68.264 45.2888Z" fill="#D40000"/>
  <path d="M10.568 46.7007C9.85597 46.8607 9.26798 47.0007 9.26398 47.0087C9.23198 47.0407 9.34398 47.6967 9.38398 47.7087C9.40398 47.7167 9.77197 47.6327 10.192 47.5247C10.616 47.4167 10.96 47.3327 10.96 47.3407C10.96 47.3487 10.708 47.5847 10.4 47.8647C9.69597 48.5047 9.65998 48.5527 9.69198 48.9487C9.70398 49.1167 9.73198 49.2687 9.75197 49.2887C9.79198 49.3287 12.348 48.7847 12.408 48.7247C12.432 48.7047 12.384 48.2247 12.34 48.0967C12.332 48.0647 12.096 48.0967 11.584 48.2007L10.844 48.3487L11.464 47.7087C12.056 47.0967 12.084 47.0607 12.06 46.9367C12.02 46.7127 11.92 46.4007 11.888 46.4047C11.872 46.4087 11.28 46.5407 10.568 46.7007Z" fill="#D40000"/>
  <path d="M68.016 46.5007C67.98 46.5567 67.94 46.7167 67.932 46.8567L67.908 47.1087L68.144 47.1407C68.276 47.1567 68.428 47.1927 68.488 47.2247C68.548 47.2567 68.632 47.2807 68.676 47.2807C68.72 47.2807 68.764 47.2967 68.776 47.3127C68.792 47.3407 68.644 48.1167 68.616 48.1527C68.612 48.1607 68.424 48.1287 68.196 48.0847C67.972 48.0367 67.76 48.0007 67.72 48.0007C67.668 48.0007 67.636 48.0767 67.58 48.3407C67.54 48.5287 67.516 48.6927 67.528 48.7007C67.552 48.7247 70.1 49.2807 70.18 49.2807C70.244 49.2807 70.28 49.1207 70.292 48.8207L70.3 48.6247L69.8 48.4647L69.3 48.3007L69.324 48.0087C69.364 47.4807 69.512 47.4007 70.12 47.5807C70.32 47.6407 70.5 47.6807 70.528 47.6727C70.568 47.6567 70.716 47.1447 70.72 46.9967C70.72 46.9447 70.66 46.9287 70.448 46.9087C70.3 46.8927 69.944 46.8167 69.66 46.7367C68.256 46.3447 68.128 46.3287 68.016 46.5007Z" fill="#D40000"/>
  <path d="M11.36 49.5407C10.264 49.9327 10.1 50.0047 10.088 50.0807C10.06 50.2486 10.208 50.7686 10.38 51.1126C10.576 51.5046 10.832 51.7886 11.092 51.9166C11.324 52.0286 11.704 52.0286 12.032 51.9166C12.36 51.8046 12.816 51.4726 12.992 51.2206C13.128 51.0246 13.128 51.0166 13.108 50.7006C13.092 50.4566 13.036 50.2326 12.872 49.7527C12.752 49.4047 12.648 49.1127 12.636 49.1047C12.628 49.0967 12.052 49.2927 11.36 49.5407ZM12.372 50.2126C12.596 50.7646 12.192 51.2286 11.468 51.2526C11.272 51.2566 11.224 51.2446 11.136 51.1566C11.052 51.0686 10.816 50.5326 10.848 50.5006C10.868 50.4846 12.216 50.0487 12.26 50.0447C12.284 50.0407 12.332 50.1167 12.372 50.2126Z" fill="#D40000"/>
  <path d="M69.428 49.7087C69.42 49.7287 69.344 49.9567 69.264 50.2207C69.18 50.4847 69.1 50.7167 69.08 50.7327C69.008 50.8087 68.74 50.7567 67.964 50.5047C67.512 50.3607 67.116 50.2407 67.08 50.2407C67.032 50.2407 66.996 50.3287 66.936 50.5767L66.852 50.9127L68.104 51.2966C68.792 51.5086 69.38 51.6806 69.408 51.6806C69.444 51.6806 69.556 51.3566 69.744 50.7087L70.028 49.7407L69.864 49.7127C69.636 49.6767 69.448 49.6767 69.428 49.7087Z" fill="#D40000"/>
  <path d="M66.588 51.4086C66.556 51.4806 66.376 51.9086 66.184 52.3566C65.92 52.9686 65.844 53.1806 65.884 53.2046C65.98 53.2606 68.364 54.2486 68.376 54.2366C68.38 54.2286 68.576 53.7886 68.812 53.2606L69.236 52.3006L69.068 52.2486C68.976 52.2206 68.84 52.1926 68.764 52.1886L68.628 52.1806L68.388 52.7606C68.256 53.0806 68.144 53.3446 68.14 53.3486C68.12 53.3806 67.64 53.1846 67.64 53.1446C67.64 53.1206 67.74 52.8646 67.86 52.5806C67.98 52.3006 68.08 52.0446 68.08 52.0206C68.08 51.9606 67.592 51.7286 67.572 51.7806C67.564 51.8006 67.456 52.0526 67.328 52.3406L67.1 52.8606L66.892 52.8246C66.776 52.8046 66.68 52.7726 66.68 52.7526C66.68 52.7326 66.8 52.4366 66.944 52.0966C67.1 51.7406 67.196 51.4606 67.176 51.4406C67.14 51.4086 66.74 51.2806 66.672 51.2806C66.656 51.2806 66.616 51.3406 66.588 51.4086Z" fill="#D40000"/>
  <path d="M12.34 52.3246C11.704 52.6046 11.164 52.8446 11.14 52.8526C11.1 52.8686 11.264 53.4046 11.34 53.5046C11.372 53.5446 11.636 53.4486 12.6 53.0366C13.272 52.7526 13.832 52.5046 13.852 52.4846C13.896 52.4406 13.624 51.8206 13.556 51.8126C13.524 51.8126 12.98 52.0406 12.34 52.3246Z" fill="#D40000"/>
  <path d="M12.872 53.8366C12.172 53.9206 11.596 53.9926 11.584 54.0046C11.576 54.0126 11.624 54.1606 11.692 54.3286L11.812 54.6406H12.096H12.38L12.576 55.0285L12.768 55.4165L12.58 55.5965L12.392 55.7725L12.544 56.0885C12.628 56.2605 12.72 56.4005 12.744 56.4005C12.772 56.4005 13.228 55.9725 13.756 55.4485C14.484 54.7285 14.72 54.4726 14.72 54.3966C14.72 54.3446 14.672 54.1606 14.612 53.9886L14.5 53.6806L14.32 53.6846C14.22 53.6886 13.568 53.7566 12.872 53.8366ZM13.728 54.5086C13.66 54.5926 13.54 54.7245 13.464 54.8005C13.344 54.9125 13.304 54.9285 13.248 54.8965C13.184 54.8565 13.004 54.5726 13 54.5126C13 54.4766 13.192 54.4366 13.536 54.4006C13.692 54.3846 13.828 54.3686 13.832 54.3646C13.84 54.3646 13.792 54.4286 13.728 54.5086Z" fill="#D40000"/>
  <path d="M65.78 53.9686C65.572 54.0446 65.332 54.2406 65.16 54.4765C65.004 54.6805 64.56 55.5125 64.56 55.5925C64.56 55.6125 64.652 55.6685 64.768 55.7245C64.884 55.7765 65.364 56.0605 65.836 56.3485C66.384 56.6845 66.74 56.8805 66.808 56.8805C66.96 56.8805 67.18 56.5925 67.452 56.0525C67.648 55.6565 67.66 55.6085 67.672 55.2805C67.684 54.9925 67.672 54.9045 67.608 54.7725C67.492 54.5485 67.128 54.2286 66.808 54.0726C66.584 53.9606 66.492 53.9406 66.22 53.9326C66.044 53.9286 65.848 53.9446 65.78 53.9686ZM66.5 54.7805C66.612 54.8325 66.772 54.9485 66.86 55.0405C66.996 55.1765 67.016 55.2245 67.012 55.3645C67.004 55.5325 66.824 55.9765 66.768 55.9525C66.5 55.8365 65.48 55.2645 65.48 55.2245C65.48 55.2005 65.528 55.0805 65.584 54.9645C65.756 54.6205 66.052 54.5605 66.5 54.7805Z" fill="#D40000"/>
  <path d="M14.86 55.6365C14.62 55.7885 14.1 56.1085 13.712 56.3485L13.008 56.7845L13.188 57.0965C13.304 57.2925 13.392 57.3965 13.424 57.3845C13.452 57.3725 13.716 57.2045 14.008 57.0085C14.3 56.8165 14.564 56.6405 14.588 56.6245C14.616 56.6085 14.5 56.8805 14.336 57.2285C13.84 58.2605 13.84 58.2605 14.12 58.5525C14.368 58.8125 14.36 58.8165 15.38 58.1405C16.2 57.5965 16.56 57.3325 16.56 57.2805C16.56 57.2165 16.272 56.8005 16.232 56.8005C16.208 56.8005 15.896 56.9805 15.532 57.2005L14.872 57.6045L15.06 57.2725C15.384 56.6925 15.68 56.0725 15.68 55.9725C15.68 55.8645 15.4 55.3645 15.34 55.3645C15.32 55.3605 15.104 55.4845 14.86 55.6365Z" fill="#D40000"/>
  <path d="M63.568 56.9765L63.32 57.2725L63.56 57.7125C63.876 58.2965 63.872 58.2805 63.736 58.2805C63.672 58.2805 63.52 58.2525 63.4 58.2205C63.28 58.1885 63.084 58.1605 62.968 58.1605C62.78 58.1605 62.736 58.1765 62.64 58.2805C62.508 58.4245 62.372 58.7485 62.424 58.7965C62.444 58.8165 62.756 58.8525 63.12 58.8765C64.316 58.9645 64.184 58.9285 64.692 59.3084L65.14 59.6444L65.292 59.3364C65.372 59.1645 65.44 59.0045 65.44 58.9805C65.44 58.9565 65.38 58.9125 65.304 58.8885C65.096 58.8125 64.784 58.5085 64.584 58.1885C64.484 58.0285 64.284 57.6405 64.14 57.3205C63.996 57.0005 63.86 56.7245 63.844 56.7085C63.828 56.6925 63.704 56.8125 63.568 56.9765Z" fill="#D40000"/>
  <path d="M17.212 58.9045C16.836 59.1645 16.54 59.3925 15.992 59.8524C15.62 60.1604 15.52 60.2684 15.52 60.3444C15.52 60.4884 15.576 60.5724 15.756 60.7204L15.916 60.8444L16.96 60.0004C17.532 59.5364 18 59.1365 18 59.1125C18 59.0885 17.936 58.9885 17.856 58.8965C17.668 58.6645 17.568 58.6645 17.212 58.9045Z" fill="#D40000"/>
  <path d="M61.94 59.2644C61.692 59.3524 61.392 59.6004 61.252 59.8404C61.124 60.0524 61.12 60.0644 61.12 60.5484C61.12 60.9924 61.132 61.0644 61.216 61.2324C61.38 61.5564 61.752 61.8524 62.184 62.0004C62.452 62.0964 62.936 62.1084 63.132 62.0284C63.48 61.8804 63.708 61.5124 63.748 61.0364C63.76 60.8844 63.784 60.7604 63.796 60.7604C63.808 60.7644 63.864 60.7884 63.92 60.8204C63.976 60.8524 64.04 60.8764 64.06 60.8804C64.096 60.8804 64.34 60.5204 64.312 60.5044C64.304 60.5004 64.06 60.2924 63.764 60.0444C63.248 59.6044 63.228 59.5924 63.16 59.6644C62.824 60.0244 62.396 60.5284 62.408 60.5564C62.424 60.6004 62.796 60.9204 62.832 60.9204C62.848 60.9204 62.92 60.8284 62.992 60.7164C63.092 60.5604 63.144 60.5164 63.212 60.5284C63.292 60.5404 63.3 60.5644 63.3 60.7604C63.3 61.1804 63.036 61.3924 62.604 61.3244C62.068 61.2364 61.72 60.8924 61.72 60.4524C61.72 60.1004 61.9 59.9244 62.324 59.8604C62.496 59.8364 62.524 59.8124 62.696 59.5764C62.796 59.4364 62.88 59.3044 62.88 59.2844C62.88 59.1925 62.188 59.1765 61.94 59.2644Z" fill="#D40000"/>
  <path d="M17.7 60.1324C16.252 61.4924 16.348 61.3924 16.412 61.4924C16.444 61.5404 16.552 61.6684 16.648 61.7764L16.824 61.9724L17.392 61.4204C17.704 61.1204 17.96 60.8924 17.96 60.9204C17.96 60.9484 17.86 61.2644 17.74 61.6204C17.572 62.1164 17.52 62.3284 17.52 62.5044C17.52 62.7364 17.52 62.7404 17.744 62.9484C17.868 63.0644 17.984 63.1604 18.004 63.1604C18.024 63.1604 18.472 62.7324 19.004 62.2084L19.968 61.2604L19.732 61.0044L19.496 60.7444L19.036 61.1844C18.272 61.9124 18.32 61.9364 18.64 60.9764L18.92 60.1444L18.668 59.8884C18.532 59.7484 18.392 59.6204 18.36 59.6004C18.316 59.5764 18.148 59.7084 17.7 60.1324Z" fill="#D40000"/>
  <path d="M59.84 61.4764C59.484 61.5924 59.184 61.8524 59.032 62.1804C58.956 62.3484 58.94 62.4484 58.94 62.7844C58.94 63.1804 58.944 63.2004 59.1 63.5044C59.376 64.0443 59.824 64.3203 60.424 64.3203C60.672 64.3203 60.764 64.3003 60.952 64.2083C61.224 64.0763 61.556 63.7564 61.672 63.5124C61.792 63.2684 61.796 62.7364 61.68 62.4324C61.572 62.1484 61.304 61.8124 61.024 61.6204L60.792 61.4604L60.364 61.4524C60.132 61.4484 59.896 61.4564 59.84 61.4764ZM60.448 62.1884C60.62 62.2724 60.844 62.4844 60.968 62.6764C61.248 63.1244 61.008 63.6404 60.516 63.6404C60.304 63.6404 60.128 63.5324 59.848 63.2244C59.516 62.8644 59.476 62.6124 59.712 62.3564C59.952 62.0884 60.16 62.0404 60.448 62.1884Z" fill="#D40000"/>
  <path d="M19.872 62.0044C19.624 62.1324 19.592 62.2164 19.608 62.6924L19.62 63.1044L19.872 63.5004C20.076 63.8244 20.12 63.9284 20.112 64.0404C20.104 64.1484 20.08 64.1844 20.012 64.1924C19.904 64.2084 19.724 64.1164 19.54 63.9564C19.388 63.8244 19.36 63.6724 19.44 63.4564C19.48 63.3564 19.468 63.3324 19.292 63.1524C19.188 63.0484 19.072 62.9604 19.032 62.9604C18.988 62.9604 18.908 63.0364 18.84 63.1484C18.604 63.5164 18.704 63.9124 19.14 64.3404C19.444 64.6403 19.7 64.7723 20.028 64.7923C20.24 64.8083 20.304 64.7963 20.456 64.7043C20.752 64.5323 20.8 64.4404 20.8 64.0524C20.8 63.6804 20.768 63.5924 20.456 63.1284C20.308 62.9044 20.28 62.8324 20.288 62.7004C20.3 62.5484 20.308 62.5404 20.44 62.5284C20.544 62.5204 20.62 62.5444 20.728 62.6284C20.868 62.7324 20.876 62.7524 20.88 62.9684C20.88 63.1884 20.884 63.2004 21.092 63.3964C21.204 63.5084 21.324 63.6004 21.348 63.6004C21.524 63.6044 21.584 62.9204 21.436 62.6124C21.34 62.4124 21.028 62.1204 20.788 62.0044C20.552 61.8884 20.084 61.8884 19.872 62.0044Z" fill="#D40000"/>
  <path d="M21.888 63.3324L21.72 63.5044L22 63.7804C22.156 63.9324 22.28 64.0723 22.28 64.0843C22.28 64.1003 22.012 64.4843 21.68 64.9403C21.352 65.3923 21.08 65.7803 21.08 65.7963C21.08 65.8123 21.208 65.9163 21.36 66.0203C21.604 66.1883 21.648 66.2083 21.696 66.1563C21.724 66.1243 22.024 65.7443 22.36 65.3083C22.944 64.5483 22.972 64.5203 23.056 64.5723C23.304 64.7363 23.552 64.8803 23.584 64.8803C23.624 64.8803 23.9 64.4483 23.876 64.4243C23.824 64.3843 22.076 63.1604 22.068 63.1604C22.06 63.1604 21.98 63.2364 21.888 63.3324Z" fill="#D40000"/>
  <path d="M57.012 63.8483C56.808 64.0083 56.768 64.0603 56.8 64.1123C56.884 64.2603 58.384 66.1763 58.424 66.1883C58.464 66.2003 59.96 64.9763 60.016 64.8883C60.024 64.8723 59.952 64.7603 59.848 64.6483L59.66 64.4363L59.42 64.6283C59.288 64.7363 59.06 64.9163 58.916 65.0283L58.652 65.2363L58.008 64.4843C57.652 64.0683 57.336 63.7124 57.308 63.6884C57.272 63.6604 57.192 63.7004 57.012 63.8483Z" fill="#D40000"/>
  <path d="M23.66 65.4683C22.732 66.9243 22.712 66.9643 22.896 67.1083C23.044 67.2283 23.32 67.3363 23.36 67.2963C23.38 67.2763 23.72 66.7563 24.12 66.1403L24.844 65.0203L24.532 64.8683C24.364 64.7883 24.204 64.7203 24.18 64.7203C24.156 64.7203 23.924 65.0563 23.66 65.4683Z" fill="#D40000"/>
  <path d="M55.4 64.8443C55.128 64.9923 54.824 65.2883 54.72 65.5043C54.656 65.6323 54.64 65.7483 54.64 66.0683C54.64 66.4363 54.648 66.4883 54.768 66.7203C54.916 67.0163 55.264 67.3843 55.524 67.5083C56.028 67.7563 56.92 67.4803 57.296 66.9683C57.416 66.8003 57.42 66.7763 57.432 66.3323C57.448 65.8843 57.444 65.8683 57.32 65.6123C57.168 65.3043 56.82 64.9403 56.556 64.8083C56.404 64.7363 56.304 64.7203 55.996 64.7203C55.652 64.7203 55.6 64.7323 55.4 64.8443ZM56.264 65.5003C56.532 65.6563 56.76 66.0523 56.76 66.3683C56.76 66.7123 56.448 66.9923 56.128 66.9363C55.776 66.8723 55.54 66.6603 55.396 66.2763C55.284 65.9843 55.296 65.7563 55.428 65.5963C55.64 65.3443 55.932 65.3123 56.264 65.5003Z" fill="#D40000"/>
  <path d="M25 65.5283C24.936 65.6163 24.88 65.7123 24.88 65.7363C24.88 65.7603 25.024 65.8563 25.2 65.9523C25.376 66.0483 25.52 66.1323 25.52 66.1403C25.52 66.1523 25.288 66.5803 25 67.0923C24.716 67.6083 24.48 68.0443 24.48 68.0643C24.48 68.0843 24.608 68.1683 24.76 68.2483L25.036 68.4003L25.252 68.0283C25.372 67.8283 25.608 67.4163 25.78 67.1203C25.952 66.8243 26.096 66.5723 26.104 66.5683C26.108 66.5603 26.272 66.6283 26.464 66.7163C26.656 66.8083 26.836 66.8803 26.868 66.8803C26.932 66.8803 27.04 66.6483 27.04 66.5083C27.04 66.4323 26.952 66.3563 26.612 66.1323C26.04 65.7563 25.324 65.3603 25.212 65.3603C25.152 65.3603 25.08 65.4163 25 65.5283Z" fill="#D40000"/>
  <path d="M53.592 66.0083C53.42 66.0763 53.28 66.1483 53.28 66.1723C53.28 66.1923 53.444 66.5243 53.644 66.9043C53.844 67.2883 53.992 67.6003 53.972 67.6003C53.956 67.6003 53.632 67.3843 53.252 67.1203C52.484 66.5883 52.448 66.5723 52.12 66.7403C52.012 66.7963 51.9 66.8403 51.872 66.8403C51.692 66.8443 51.712 66.9043 52.328 68.1363C52.788 69.0562 52.956 69.3602 53.012 69.3602C53.108 69.3602 53.36 69.2522 53.448 69.1722C53.488 69.1362 53.52 69.0522 53.52 68.9802C53.52 68.8602 53.308 68.4083 53 67.8643L52.868 67.6323L53.024 67.7283C53.108 67.7843 53.476 68.0203 53.836 68.2563L54.492 68.6802L54.656 68.5842C54.748 68.5322 54.896 68.4522 54.992 68.4043L55.16 68.3163L54.584 67.1683C54.264 66.5363 53.98 65.9923 53.952 65.9523C53.904 65.8923 53.876 65.8963 53.592 66.0083Z" fill="#D40000"/>
  <path d="M27.184 66.7283C26.84 67.3123 26.48 68.3003 26.48 68.6483C26.48 68.9243 26.624 69.1602 26.916 69.3762C27.192 69.5802 27.468 69.6802 27.756 69.6802C27.956 69.6802 28.02 69.6602 28.184 69.5482C28.436 69.3802 28.72 69.0243 28.936 68.6003C29.116 68.2483 29.36 67.6083 29.36 67.4843C29.36 67.4283 29.284 67.3843 29.072 67.3043C28.912 67.2483 28.76 67.2003 28.74 67.2003C28.716 67.2003 28.656 67.3203 28.604 67.4683C28.456 67.8843 28.064 68.6403 27.896 68.8363C27.752 69.0003 27.74 69.0083 27.568 68.9883C27.352 68.9643 27.184 68.8483 27.168 68.7123C27.152 68.5883 27.34 68.0923 27.676 67.3723C27.808 67.0843 27.92 66.8283 27.92 66.8043C27.92 66.7483 27.52 66.5603 27.392 66.5603C27.308 66.5603 27.264 66.5963 27.184 66.7283Z" fill="#D40000"/>
  <path d="M50.752 67.2723C50.688 67.3123 50.64 67.3603 50.64 67.3843C50.64 67.4043 50.704 67.6123 50.78 67.8403C50.856 68.0683 50.908 68.2683 50.892 68.2843C50.872 68.3003 50.692 68.3803 50.484 68.4603C50.22 68.5603 50.096 68.5883 50.08 68.5563C50.064 68.5323 49.992 68.3403 49.92 68.1323L49.788 67.7523L49.648 67.7763C49.42 67.8123 49.14 67.9683 49.128 68.0683C49.12 68.1363 50.004 70.4482 50.064 70.5162C50.088 70.5442 50.728 70.3442 50.744 70.3002C50.752 70.2802 50.672 70.0362 50.564 69.7602C50.456 69.4842 50.38 69.2482 50.392 69.2322C50.448 69.1722 51.176 68.9202 51.204 68.9482C51.216 68.9642 51.304 69.1882 51.396 69.4402C51.488 69.6922 51.58 69.9122 51.596 69.9322C51.612 69.9482 51.764 69.9042 51.932 69.8362C52.296 69.6882 52.296 69.6922 52.116 69.1522C51.884 68.4563 51.5 67.6043 51.292 67.3283C51.208 67.2163 51.172 67.2003 51.028 67.2043C50.936 67.2043 50.812 67.2363 50.752 67.2723Z" fill="#D40000"/>
  <path d="M29.48 67.7843C29.432 67.9283 29.408 68.0602 29.424 68.0762C29.444 68.0922 29.608 68.1402 29.792 68.1802C29.972 68.2202 30.12 68.2642 30.12 68.2762C30.12 68.2882 29.968 68.7362 29.78 69.2722C29.468 70.1722 29.412 70.3602 29.456 70.3602C29.468 70.3602 29.616 70.4122 29.792 70.4762L30.108 70.5922L30.46 69.5882C30.652 69.0322 30.816 68.5762 30.82 68.5682C30.828 68.5602 30.98 68.5922 31.16 68.6402C31.34 68.6882 31.52 68.7202 31.556 68.7122C31.6 68.7042 31.632 68.6282 31.66 68.4602L31.704 68.2202L30.688 67.8683C30.128 67.6763 29.648 67.5203 29.62 67.5203C29.588 67.5203 29.528 67.6363 29.48 67.7843Z" fill="#D40000"/>
  <path d="M31.924 68.4883C31.716 69.2762 31.36 70.7522 31.36 70.8402C31.36 70.9322 31.388 70.9642 31.552 71.0322C31.908 71.1842 32.984 71.4402 33.26 71.4402C33.404 71.4402 33.44 71.3802 33.44 71.1122C33.44 70.9842 33.42 70.9522 33.316 70.8962C33.16 70.8162 32.468 70.6402 32.312 70.6402H32.192L32.22 70.3882C32.236 70.2522 32.256 70.1362 32.26 70.1282C32.268 70.1202 32.548 70.1682 32.884 70.2362C33.22 70.3042 33.508 70.3482 33.52 70.3322C33.564 70.2802 33.64 69.7842 33.608 69.7562C33.592 69.7442 33.32 69.6802 33.008 69.6202L32.432 69.5082L32.456 69.3882C32.468 69.3242 32.48 69.2482 32.48 69.2242C32.484 69.0882 32.544 69.0802 32.884 69.1802C33.296 69.3042 33.772 69.3522 33.86 69.2802C33.9 69.2482 33.92 69.1562 33.92 69.0042V68.7762L32.972 68.5482C32.448 68.4203 32.008 68.3203 31.996 68.3203C31.98 68.3203 31.948 68.3963 31.924 68.4883Z" fill="#D40000"/>
  <path d="M47.4 68.3963C47.14 68.5043 46.9 68.7283 46.772 68.9922C46.668 69.2002 46.66 69.2562 46.66 69.6802C46.66 70.0922 46.672 70.1642 46.764 70.3642C46.9 70.6562 47.104 70.8762 47.348 71.0002C47.516 71.0882 47.604 71.1002 48.02 71.1122C48.464 71.1242 48.516 71.1162 48.68 71.0282C49.012 70.8522 49.28 70.3802 49.28 69.9722C49.28 69.8042 49.272 69.7922 49.188 69.8162C49.136 69.8282 48.992 69.8482 48.868 69.8642C48.648 69.8882 48.64 69.8962 48.64 70.0082C48.64 70.1762 48.54 70.3882 48.432 70.4442C48.272 70.5322 48.032 70.5562 47.9 70.5002C47.52 70.3442 47.236 69.4802 47.464 69.1762C47.616 68.9682 47.748 68.9002 47.988 68.9042C48.18 68.9042 48.224 68.9202 48.296 69.0122C48.396 69.1402 48.504 69.1482 48.772 69.0522C48.932 68.9962 48.96 68.9682 48.96 68.8802C48.96 68.7402 48.816 68.5283 48.644 68.4123C48.52 68.3283 48.464 68.3203 48.044 68.3243C47.692 68.3243 47.536 68.3443 47.4 68.3963Z" fill="#D40000"/>
  <path d="M45.4 68.8843C45.28 68.9043 44.956 68.9763 44.676 69.0403C44.396 69.1083 44.132 69.1603 44.084 69.1603C44.032 69.1603 44 69.1842 44 69.2282C43.996 69.3602 44.452 71.8202 44.484 71.8562C44.516 71.8922 46.512 71.5722 46.572 71.5242C46.596 71.5002 46.548 71.1362 46.496 70.9562C46.48 70.9002 46.404 70.9082 45.812 71.0242C45.444 71.1002 45.124 71.1602 45.1 71.1602C45.076 71.1602 45.036 71.0602 45.012 70.9362C44.976 70.7282 44.98 70.7082 45.06 70.6562C45.156 70.5922 45.572 70.4962 45.932 70.4562L46.16 70.4282V70.1802C46.16 69.9882 46.144 69.9242 46.096 69.9042C45.976 69.8562 45.66 69.8802 45.328 69.9602C44.84 70.0762 44.84 70.0762 44.84 69.8442V69.6522L45.46 69.5202L46.08 69.3882V69.1523C46.08 68.9363 46.072 68.9163 45.976 68.8803C45.856 68.8323 45.704 68.8363 45.4 68.8843Z" fill="#D40000"/>
  <path d="M35.832 69.3162C35.648 69.4322 35.392 69.7402 35.264 69.9882C35.216 70.0882 35.2 70.2402 35.2 70.6802C35.2 71.3282 35.24 71.4482 35.528 71.6962C35.816 71.9442 36.092 72.0522 36.488 72.0722C36.792 72.0882 36.856 72.0802 37.056 71.9882C37.356 71.8522 37.652 71.5642 37.8 71.2682C37.908 71.0482 37.92 70.9922 37.92 70.6362C37.92 70.1482 37.832 69.8922 37.568 69.5962C37.276 69.2722 37.084 69.2002 36.496 69.2002C36.032 69.2002 36.008 69.2042 35.832 69.3162ZM36.908 69.8802C37.096 69.9922 37.172 70.1722 37.176 70.5042C37.176 70.7442 37.16 70.8242 37.06 71.0202C36.92 71.2922 36.792 71.3962 36.572 71.4282C36.344 71.4602 36.14 71.3802 36.012 71.2122C35.92 71.0922 35.9 71.0202 35.888 70.7762C35.868 70.3922 35.952 70.1322 36.164 69.9442C36.304 69.8122 36.344 69.8002 36.552 69.8002C36.708 69.8002 36.82 69.8242 36.908 69.8802Z" fill="#D40000"/>
  <path d="M42.4 69.3442C42.08 69.3962 41.752 69.4362 41.672 69.4402H41.52V69.7442V70.0482L41.652 70.0282C41.72 70.0122 41.888 69.9922 42.024 69.9762L42.268 69.9522L42.292 70.1042C42.304 70.1922 42.344 70.6682 42.384 71.1682L42.456 72.0802H42.848H43.24L43.22 71.9082C43.188 71.6522 43.08 70.1402 43.08 69.9802V69.8402H43.42H43.764L43.752 69.5482L43.74 69.2602L43.36 69.2522C43.12 69.2482 42.768 69.2802 42.4 69.3442Z" fill="#D40000"/>
  <path d="M38.344 70.4282C38.332 70.9762 38.308 71.5882 38.296 71.7882L38.268 72.1602H38.656H39.04V71.6402V71.1202H39.6H40.16V70.8402V70.5602H39.64H39.12V70.2762V69.9922L39.672 70.0122C39.972 70.0242 40.256 70.0402 40.3 70.0482C40.372 70.0602 40.38 70.0362 40.392 69.7482L40.404 69.4402H39.388H38.372L38.344 70.4282Z" fill="#D40000"/>
</svg>