<svg xmlns="http://www.w3.org/2000/svg" width="28" height="28" viewBox="0 0 28 28" fill="none">
  <path d="M14.0029 9.04166C12.0699 9.04166 10.5029 10.6087 10.5029 12.5417C10.5029 14.4747 12.0699 16.0417 14.0029 16.0417C15.9359 16.0417 17.5029 14.4747 17.5029 12.5417C17.5029 10.6087 15.9359 9.04166 14.0029 9.04166ZM11.9612 12.5417C11.9612 11.4141 12.8753 10.5 14.0029 10.5C15.1304 10.5 16.0445 11.4141 16.0445 12.5417C16.0445 13.6692 15.1304 14.5833 14.0029 14.5833C12.8753 14.5833 11.9612 13.6692 11.9612 12.5417ZM21.5833 18.6667L15.6984 24.9137C14.7772 25.8916 13.2227 25.8916 12.3016 24.9137L6.41668 18.6667H6.43888L6.42902 18.655L6.41668 18.6404C6.04087 18.1949 5.7036 17.7158 5.41002 17.2083C4.56626 15.7497 4.08334 14.0563 4.08334 12.25C4.08334 6.77317 8.52319 2.33333 14 2.33333C19.4768 2.33333 23.9167 6.77317 23.9167 12.25C23.9167 14.0563 23.4338 15.7497 22.59 17.2083C22.2964 17.7158 21.9592 18.1949 21.5833 18.6404L21.571 18.655L21.5611 18.6667H21.5833ZM20.4497 17.7225C21.7034 16.2467 22.4583 14.3384 22.4583 12.25C22.4583 7.57859 18.6714 3.79166 14 3.79166C9.3286 3.79166 5.54168 7.57859 5.54168 12.25C5.54168 14.3384 6.29666 16.2467 7.55033 17.7225L7.72988 17.9339L13.3631 23.9138C13.7085 24.2805 14.2915 24.2805 14.6369 23.9138L20.2702 17.9339L20.4497 17.7225Z" fill="black" fill-opacity="0.6"/>
</svg>