<svg xmlns="http://www.w3.org/2000/svg" width="28" height="28" viewBox="0 0 28 28" fill="none">
  <path d="M11.9583 2.33333C8.73666 2.33333 6.12499 4.94501 6.12499 8.16667C6.12499 11.3883 8.73666 14 11.9583 14C15.18 14 17.7917 11.3883 17.7917 8.16667C17.7917 4.94501 15.18 2.33333 11.9583 2.33333ZM7.58332 8.16667C7.58332 5.75042 9.54207 3.79167 11.9583 3.79167C14.3746 3.79167 16.3333 5.75042 16.3333 8.16667C16.3333 10.5829 14.3746 12.5417 11.9583 12.5417C9.54207 12.5417 7.58332 10.5829 7.58332 8.16667ZM5.10408 16.3333C3.73522 16.3333 2.625 17.4424 2.62499 18.8118L2.62498 19.25C2.62498 21.4407 3.75763 23.0807 5.49508 24.1384C7.20361 25.1786 9.50019 25.6667 11.9583 25.6667C12.2685 25.6667 12.5762 25.6589 12.8804 25.6432C12.4684 25.2102 12.107 24.7285 11.8058 24.2076C9.57562 24.1877 7.62774 23.7295 6.25343 22.8928C4.87678 22.0547 4.08332 20.8509 4.08332 19.25L4.08332 18.8119C4.08332 18.2484 4.54004 17.7916 5.10408 17.7916H11.2583C11.4482 17.277 11.6923 16.7885 11.9838 16.3333H5.10408ZM24.7917 20.4167C24.7917 23.9605 21.9188 26.8333 18.375 26.8333C14.8312 26.8333 11.9583 23.9605 11.9583 20.4167C11.9583 16.8728 14.8312 14 18.375 14C21.9188 14 24.7917 16.8728 24.7917 20.4167ZM19.0692 16.5674C18.8507 15.8664 17.8993 15.8664 17.6808 16.5674L16.9845 18.8012H14.7313C14.0242 18.8012 13.7302 19.7445 14.3023 20.1777L16.1251 21.5584L15.4289 23.7922C15.2104 24.4932 15.98 25.0762 16.5521 24.6429L18.375 23.2624L20.1979 24.6429C20.7699 25.0762 21.5396 24.4932 21.3211 23.7922L20.6248 21.5584L22.4477 20.1777C23.0198 19.7445 22.7258 18.8012 22.0187 18.8012H19.7655L19.0692 16.5674Z" fill="black" fill-opacity="0.6"/>
</svg>