<svg xmlns="http://www.w3.org/2000/svg" width="40" height="40" fill="none" viewBox="0 0 40 40">
  <path fill-opacity="1" fill="black" d="M15.863 21.273a2.864 2.864 0 0 1 2.864 2.863v7A2.864 2.864 0 0 1 15.863 34h-7A2.864 2.864 0 0 1 6 31.136v-7a2.864 2.864 0 0 1 2.864-2.863h7Zm9.654 0v4.242h4.24v4.243l-4.24-.001v4.242h-4.243v-4.242h4.241v-4.242h-4.24v-4.242h4.242ZM34 29.757v4.242h-4.242v-4.242H34Zm-18.137-6.575h-7a.955.955 0 0 0-.954.954v7c0 .527.427.955.955.955h7a.955.955 0 0 0 .954-.955v-7a.955.955 0 0 0-.955-.954Zm-1.59 2.545v3.819h-3.819v-3.819h3.819ZM34 21.273v4.242h-4.242v-4.242H34ZM15.863 6a2.864 2.864 0 0 1 2.864 2.864v7a2.864 2.864 0 0 1-2.864 2.863h-7A2.864 2.864 0 0 1 6 15.864v-7A2.864 2.864 0 0 1 8.864 6h7Zm15.273 0a2.864 2.864 0 0 1 2.863 2.864v7a2.864 2.864 0 0 1-2.863 2.863h-7a2.864 2.864 0 0 1-2.864-2.863v-7A2.864 2.864 0 0 1 24.136 6h7ZM15.863 7.91h-7a.955.955 0 0 0-.954.954v7c0 .527.427.954.955.954h7a.955.955 0 0 0 .954-.954v-7a.955.955 0 0 0-.955-.955Zm15.273 0h-7a.954.954 0 0 0-.954.954v7c0 .527.427.954.954.954h7a.955.955 0 0 0 .954-.954v-7a.955.955 0 0 0-.954-.955Zm-16.863 2.544v3.819h-3.819v-3.819h3.819Zm15.272 0v3.819h-3.818v-3.819h3.818Z"/>
</svg>
